%TF.GenerationSoftware,Altium Limited,Altium Designer,24.7.2 (38)*%
G04 Layer_Color=0*
%FSLAX45Y45*%
%MOMM*%
%TF.SameCoordinates,B6918A48-4A74-411C-9F4E-45D1434950E3*%
%TF.FilePolarity,Positive*%
%TF.FileFunction,NonPlated,1,2,NPTH,Drill*%
%TF.Part,Single*%
G01*
G75*
G36*
X16920566Y5386529D02*
Y5373647D01*
X16925594Y5348376D01*
X16935452Y5324572D01*
X16949767Y5303149D01*
X16967986Y5284930D01*
X16989409Y5270616D01*
X17013213Y5260756D01*
X17038484Y5255729D01*
X17051366D01*
X17064249D01*
X17089519Y5260756D01*
X17113322Y5270616D01*
X17134747Y5284930D01*
X17152965Y5303149D01*
X17167281Y5324572D01*
X17177139Y5348376D01*
X17182167Y5373647D01*
Y5386529D01*
Y5399412D01*
X17177139Y5424682D01*
X17167281Y5448486D01*
X17152965Y5469910D01*
X17134747Y5488128D01*
X17113322Y5502443D01*
X17089519Y5512303D01*
X17064249Y5517330D01*
X17051366D01*
X17038484D01*
X17013213Y5512303D01*
X16989409Y5502443D01*
X16967986Y5488128D01*
X16949767Y5469910D01*
X16935452Y5448486D01*
X16925594Y5424682D01*
X16920566Y5399412D01*
Y5386529D01*
D01*
D02*
G37*
G36*
X13781908D02*
Y5373647D01*
X13786932Y5348376D01*
X13796793Y5324572D01*
X13811108Y5303149D01*
X13829327Y5284930D01*
X13850751Y5270616D01*
X13874554Y5260756D01*
X13899825Y5255729D01*
X13912708D01*
X13925591D01*
X13950861Y5260756D01*
X13974664Y5270616D01*
X13996088Y5284930D01*
X14014307Y5303149D01*
X14028619Y5324572D01*
X14038480Y5348376D01*
X14043507Y5373647D01*
Y5386529D01*
Y5399412D01*
X14038480Y5424682D01*
X14028619Y5448486D01*
X14014307Y5469910D01*
X13996088Y5488128D01*
X13974664Y5502443D01*
X13950861Y5512303D01*
X13925591Y5517330D01*
X13912708D01*
X13899825D01*
X13874554Y5512303D01*
X13850751Y5502443D01*
X13829327Y5488128D01*
X13811108Y5469910D01*
X13796793Y5448486D01*
X13786932Y5424682D01*
X13781908Y5399412D01*
Y5386529D01*
D01*
D02*
G37*
%TF.MD5,bdc4f52ce0dd88f938d797410edbf792*%
M02*
