%TF.GenerationSoftware,Altium Limited,Altium Designer,24.7.2 (38)*%
G04 Layer_Color=65535*
%FSLAX45Y45*%
%MOMM*%
%TF.SameCoordinates,B6918A48-4A74-411C-9F4E-45D1434950E3*%
%TF.FilePolarity,Positive*%
%TF.FileFunction,Legend,Top*%
%TF.Part,Single*%
G01*
G75*
%TA.AperFunction,NonConductor*%
%ADD22C,0.25000*%
%ADD23C,0.20000*%
%ADD24C,0.10000*%
%ADD25C,0.05000*%
D22*
X14272420Y6245380D02*
G03*
X14272420Y6245380I-12500J0D01*
G01*
D23*
X15016299Y5751900D02*
G03*
X15016299Y5751900I-10000J0D01*
G01*
X10881502Y5111257D02*
X10901502D01*
X10881502Y5226258D02*
X10901502D01*
X13347803Y5744459D02*
X13367802D01*
X13347803Y5859460D02*
X13367802D01*
X14004919Y6312880D02*
X14039922D01*
X14004919Y6177885D02*
X14039922D01*
X14760103Y5921659D02*
X14780103D01*
X14760103Y6036661D02*
X14780103D01*
X15848682Y6058063D02*
Y6078063D01*
X15733679Y6058063D02*
Y6078063D01*
X16162183Y5921659D02*
X16182182D01*
X16162183Y6036661D02*
X16182182D01*
X17579503Y5743859D02*
X17599503D01*
X17579503Y5858861D02*
X17599503D01*
X17253300Y5918363D02*
Y5938363D01*
X17138300Y5918363D02*
Y5938363D01*
X18497900Y5664363D02*
Y5684363D01*
X18382899Y5664363D02*
Y5684363D01*
X18817798Y5489859D02*
X18837798D01*
X18817798Y5604861D02*
X18837798D01*
X19722099Y5342961D02*
Y5362961D01*
X19607098Y5342961D02*
Y5362961D01*
X10456200Y5178664D02*
Y5198664D01*
X10571201Y5178664D02*
Y5198664D01*
X11675100Y5563763D02*
Y5583763D01*
X11790101Y5563763D02*
Y5583763D01*
X12919299Y5855462D02*
Y5875462D01*
X13034300Y5855462D02*
Y5875462D01*
X14002917Y5954283D02*
X14022919D01*
X14002917Y6079282D02*
X14022919D01*
X14331599Y6045363D02*
Y6065363D01*
X14446600Y6045363D02*
Y6065363D01*
X12103603Y5605861D02*
X12123603D01*
X12103603Y5490860D02*
X12123603D01*
X14761301Y4964999D02*
X16201299D01*
X14761301D02*
Y5157998D01*
Y5442001D02*
Y5570002D01*
X16201299Y4964999D02*
Y5157998D01*
Y5442001D02*
Y5570002D01*
X16003300D02*
X16201299D01*
X14761301D02*
X14959300D01*
X20041997Y5251760D02*
X20061996D01*
X20041997Y5136759D02*
X20061996D01*
D24*
X12739120Y5944008D02*
Y5993992D01*
X12764112D01*
X12772443Y5985661D01*
Y5969000D01*
X12764112Y5960669D01*
X12739120D01*
X12755781D02*
X12772443Y5944008D01*
X12789104D02*
X12805765D01*
X12797435D01*
Y5993992D01*
X12789104Y5985661D01*
X12864079Y5944008D02*
X12830757D01*
X12864079Y5977331D01*
Y5985661D01*
X12855750Y5993992D01*
X12839088D01*
X12830757Y5985661D01*
X20100546Y5029608D02*
Y5079592D01*
X20125539D01*
X20133870Y5071261D01*
Y5054600D01*
X20125539Y5046269D01*
X20100546D01*
X20117207D02*
X20133870Y5029608D01*
X20150531Y5071261D02*
X20158861Y5079592D01*
X20175523D01*
X20183853Y5071261D01*
Y5062931D01*
X20175523Y5054600D01*
X20167192D01*
X20175523D01*
X20183853Y5046269D01*
Y5037939D01*
X20175523Y5029608D01*
X20158861D01*
X20150531Y5037939D01*
X19592548Y5537608D02*
Y5587592D01*
X19617538D01*
X19625870Y5579261D01*
Y5562600D01*
X19617538Y5554269D01*
X19592548D01*
X19609209D02*
X19625870Y5537608D01*
X19675853D02*
X19642531D01*
X19675853Y5570931D01*
Y5579261D01*
X19667523Y5587592D01*
X19650861D01*
X19642531Y5579261D01*
X18881348Y5385208D02*
Y5435192D01*
X18906339D01*
X18914670Y5426861D01*
Y5410200D01*
X18906339Y5401869D01*
X18881348D01*
X18898009D02*
X18914670Y5385208D01*
X18964653Y5435192D02*
X18931331D01*
Y5410200D01*
X18947992Y5418531D01*
X18956323D01*
X18964653Y5410200D01*
Y5393539D01*
X18956323Y5385208D01*
X18939661D01*
X18931331Y5393539D01*
X14754051Y6096408D02*
Y6146392D01*
X14779044D01*
X14787373Y6138061D01*
Y6121400D01*
X14779044Y6113069D01*
X14754051D01*
X14770712D02*
X14787373Y6096408D01*
X14804034D02*
X14820695D01*
X14812366D01*
Y6146392D01*
X14804034Y6138061D01*
X14845688Y6096408D02*
X14862349D01*
X14854019D01*
Y6146392D01*
X14845688Y6138061D01*
X14517120Y6274208D02*
Y6324192D01*
X14542113D01*
X14550443Y6315861D01*
Y6299200D01*
X14542113Y6290869D01*
X14517120D01*
X14533781D02*
X14550443Y6274208D01*
X14567104D02*
X14583765D01*
X14575435D01*
Y6324192D01*
X14567104Y6315861D01*
X14608757D02*
X14617088Y6324192D01*
X14633749D01*
X14642081Y6315861D01*
Y6282539D01*
X14633749Y6274208D01*
X14617088D01*
X14608757Y6282539D01*
Y6315861D01*
X18373347Y5842408D02*
Y5892392D01*
X18398338D01*
X18406670Y5884061D01*
Y5867400D01*
X18398338Y5859069D01*
X18373347D01*
X18390009D02*
X18406670Y5842408D01*
X18448323D02*
Y5892392D01*
X18423331Y5867400D01*
X18456653D01*
X13399519Y5969408D02*
Y6019392D01*
X13424512D01*
X13432843Y6011061D01*
Y5994400D01*
X13424512Y5986069D01*
X13399519D01*
X13416180D02*
X13432843Y5969408D01*
X13449504D02*
X13466165D01*
X13457835D01*
Y6019392D01*
X13449504Y6011061D01*
X13491158D02*
X13499487Y6019392D01*
X13516148D01*
X13524480Y6011061D01*
Y6002731D01*
X13516148Y5994400D01*
X13507819D01*
X13516148D01*
X13524480Y5986069D01*
Y5977739D01*
X13516148Y5969408D01*
X13499487D01*
X13491158Y5977739D01*
X16138147Y6096408D02*
Y6146392D01*
X16163139D01*
X16171471Y6138061D01*
Y6121400D01*
X16163139Y6113069D01*
X16138147D01*
X16154808D02*
X16171471Y6096408D01*
X16188132Y6104739D02*
X16196461Y6096408D01*
X16213123D01*
X16221452Y6104739D01*
Y6138061D01*
X16213123Y6146392D01*
X16196461D01*
X16188132Y6138061D01*
Y6129731D01*
X16196461Y6121400D01*
X16221452D01*
X13708078Y6071008D02*
Y6120992D01*
X13733070D01*
X13741400Y6112661D01*
Y6096000D01*
X13733070Y6087669D01*
X13708078D01*
X13724739D02*
X13741400Y6071008D01*
X13758061D02*
X13774722D01*
X13766393D01*
Y6120992D01*
X13758061Y6112661D01*
X15706348Y6223408D02*
Y6273392D01*
X15731339D01*
X15739670Y6265061D01*
Y6248400D01*
X15731339Y6240069D01*
X15706348D01*
X15723009D02*
X15739670Y6223408D01*
X15756331Y6265061D02*
X15764661Y6273392D01*
X15781323D01*
X15789653Y6265061D01*
Y6256731D01*
X15781323Y6248400D01*
X15789653Y6240069D01*
Y6231739D01*
X15781323Y6223408D01*
X15764661D01*
X15756331Y6231739D01*
Y6240069D01*
X15764661Y6248400D01*
X15756331Y6256731D01*
Y6265061D01*
X15764661Y6248400D02*
X15781323D01*
X10834120Y4978808D02*
Y5028792D01*
X10859112D01*
X10867443Y5020461D01*
Y5003800D01*
X10859112Y4995469D01*
X10834120D01*
X10850781D02*
X10867443Y4978808D01*
X10884104D02*
X10900765D01*
X10892435D01*
Y5028792D01*
X10884104Y5020461D01*
X10925757Y5028792D02*
X10959080D01*
Y5020461D01*
X10925757Y4987139D01*
Y4978808D01*
X17128748Y6096408D02*
Y6146392D01*
X17153738D01*
X17162070Y6138061D01*
Y6121400D01*
X17153738Y6113069D01*
X17128748D01*
X17145409D02*
X17162070Y6096408D01*
X17212053Y6146392D02*
X17195392Y6138061D01*
X17178731Y6121400D01*
Y6104739D01*
X17187061Y6096408D01*
X17203723D01*
X17212053Y6104739D01*
Y6113069D01*
X17203723Y6121400D01*
X17178731D01*
X11494520Y5639208D02*
Y5689192D01*
X11519512D01*
X11527843Y5680861D01*
Y5664200D01*
X11519512Y5655869D01*
X11494520D01*
X11511181D02*
X11527843Y5639208D01*
X11544504D02*
X11561165D01*
X11552835D01*
Y5689192D01*
X11544504Y5680861D01*
X11611149Y5639208D02*
Y5689192D01*
X11586157Y5664200D01*
X11619480D01*
X10453120Y4978808D02*
Y5028792D01*
X10478112D01*
X10486443Y5020461D01*
Y5003800D01*
X10478112Y4995469D01*
X10453120D01*
X10469781D02*
X10486443Y4978808D01*
X10503104D02*
X10519765D01*
X10511435D01*
Y5028792D01*
X10503104Y5020461D01*
X10578080Y5028792D02*
X10561418Y5020461D01*
X10544757Y5003800D01*
Y4987139D01*
X10553088Y4978808D01*
X10569749D01*
X10578080Y4987139D01*
Y4995469D01*
X10569749Y5003800D01*
X10544757D01*
X17433546Y5639208D02*
Y5689192D01*
X17458539D01*
X17466870Y5680861D01*
Y5664200D01*
X17458539Y5655869D01*
X17433546D01*
X17450208D02*
X17466870Y5639208D01*
X17483531Y5689192D02*
X17516853D01*
Y5680861D01*
X17483531Y5647539D01*
Y5639208D01*
X16095679Y5740808D02*
Y5790792D01*
X16120670D01*
X16128999Y5782461D01*
Y5765800D01*
X16120670Y5757469D01*
X16095679D01*
X16145660Y5740808D02*
X16162323D01*
X16153992D01*
Y5790792D01*
X16145660Y5782461D01*
X13860478Y6400392D02*
Y6350408D01*
X13885471D01*
X13893800Y6358739D01*
Y6392061D01*
X13885471Y6400392D01*
X13860478D01*
X13910461Y6350408D02*
X13927122D01*
X13918793D01*
Y6400392D01*
X13910461Y6392061D01*
D25*
X12268608Y5425603D02*
Y5445597D01*
X12278605D01*
X12281937Y5442264D01*
Y5435600D01*
X12278605Y5432268D01*
X12268608D01*
X12275273D02*
X12281937Y5425603D01*
X12288602D02*
X12295266D01*
X12291934D01*
Y5445597D01*
X12288602Y5442264D01*
X12318592Y5445597D02*
X12305263D01*
Y5435600D01*
X12311927Y5438932D01*
X12315260D01*
X12318592Y5435600D01*
Y5428936D01*
X12315260Y5425603D01*
X12308595D01*
X12305263Y5428936D01*
%TF.MD5,afa071e81ae7d7683054ff29d15e9c27*%
M02*
