%TF.GenerationSoftware,Altium Limited,Altium Designer,24.7.2 (38)*%
G04 Layer_Color=8421504*
%FSLAX45Y45*%
%MOMM*%
%TF.SameCoordinates,B6918A48-4A74-411C-9F4E-45D1434950E3*%
%TF.FilePolarity,Positive*%
%TF.FileFunction,Paste,Top*%
%TF.Part,Single*%
G01*
G75*
%TA.AperFunction,SMDPad,CuDef*%
%ADD10R,0.85000X1.35000*%
%ADD11R,1.25000X1.10000*%
%ADD12R,1.35000X0.85000*%
%ADD13R,1.20000X1.45000*%
%ADD14R,1.80000X2.20000*%
%ADD15R,0.30000X1.30000*%
D10*
X10973999Y5168758D02*
D03*
X10809000D02*
D03*
X13440298Y5801959D02*
D03*
X13275301D02*
D03*
X14852599Y5979160D02*
D03*
X14687601D02*
D03*
X16254678D02*
D03*
X16089680D02*
D03*
X17671999Y5801360D02*
D03*
X17507001D02*
D03*
X18910300Y5547360D02*
D03*
X18745302D02*
D03*
X12031101Y5548361D02*
D03*
X12196100D02*
D03*
X19969501Y5194259D02*
D03*
X20134499D02*
D03*
D11*
X13904919Y6245382D02*
D03*
X14139922D02*
D03*
D12*
X15791180Y6150559D02*
D03*
Y5985561D02*
D03*
X17195799Y6010859D02*
D03*
Y5845861D02*
D03*
X18440401Y5756859D02*
D03*
Y5591861D02*
D03*
X19664600Y5435458D02*
D03*
Y5270459D02*
D03*
X10513700Y5106162D02*
D03*
Y5271160D02*
D03*
X11732600Y5491262D02*
D03*
Y5656260D02*
D03*
X12976799Y5782960D02*
D03*
Y5947959D02*
D03*
X14389101Y5972861D02*
D03*
Y6137859D02*
D03*
D13*
X14112921Y6016782D02*
D03*
X13912921D02*
D03*
D14*
X16146301Y5300000D02*
D03*
X14816302D02*
D03*
D15*
X15956300Y5624998D02*
D03*
X15906297D02*
D03*
X15856300D02*
D03*
X15806297D02*
D03*
X15756300D02*
D03*
X15706297D02*
D03*
X15656300D02*
D03*
X15606297D02*
D03*
X15556300D02*
D03*
X15506299D02*
D03*
X15456300D02*
D03*
X15406299D02*
D03*
X15356302D02*
D03*
X15306299D02*
D03*
X15256302D02*
D03*
X15206299D02*
D03*
X15156302D02*
D03*
X15106299D02*
D03*
X15056302D02*
D03*
X15006300D02*
D03*
%TF.MD5,0ccfac9b761bd317caf72106c1c57f31*%
M02*
