%TF.GenerationSoftware,Altium Limited,Altium Designer,24.7.2 (38)*%
G04 Layer_Physical_Order=2*
G04 Layer_Color=16711680*
%FSLAX45Y45*%
%MOMM*%
%TF.SameCoordinates,B6918A48-4A74-411C-9F4E-45D1434950E3*%
%TF.FilePolarity,Positive*%
%TF.FileFunction,Copper,L2,Bot,Signal*%
%TF.Part,Single*%
G01*
G75*
%TA.AperFunction,Conductor*%
%ADD16C,0.30000*%
%ADD18C,0.50000*%
%TA.AperFunction,ViaPad*%
%ADD19C,0.90000*%
%TA.AperFunction,SMDPad,CuDef*%
%ADD20O,1.30000X0.80000*%
%ADD21R,1.30000X0.80000*%
D16*
X20270799Y5167762D02*
X20433162D01*
X20497800Y5232400D01*
X11104113Y5167772D02*
X11265799D01*
X11104001Y5167660D02*
X11104113Y5167772D01*
X14438680Y6251981D02*
X14532599Y6158062D01*
X14438680Y6251981D02*
Y6287720D01*
X14532599Y6158062D02*
X14557599D01*
X14427200Y6299200D02*
X14438680Y6287720D01*
X14982600Y5978063D02*
X15007600D01*
X15081384Y5904280D01*
X15126920D01*
X15138400Y5892800D01*
X15886481Y6211484D02*
X15909676Y6188288D01*
X15875000Y6299200D02*
X15886481Y6287720D01*
X15909676Y6183061D02*
Y6188288D01*
X15886481Y6211484D02*
Y6287720D01*
X15909676Y6183061D02*
X15934680Y6158062D01*
X15959679D01*
X17376999Y5980262D02*
X17399001Y6002264D01*
Y6121400D01*
X19046600Y5546263D02*
X19160384D01*
X19220247Y5486400D01*
X19227800D01*
X19837399D02*
X19845798Y5478003D01*
Y5347762D02*
Y5478003D01*
X17818019Y5800263D02*
X17909540Y5708741D01*
Y5699760D02*
Y5708741D01*
X17802000Y5800263D02*
X17818019D01*
X11265799Y5167772D02*
X11265911Y5167889D01*
X10521691Y5406649D02*
X10580680Y5347660D01*
X10678998D01*
X11793657Y5727263D02*
X11901099D01*
X11735811Y5785109D02*
X11793657Y5727263D01*
X12395068Y5577703D02*
X12420463D01*
X12484100Y5641340D01*
X12326102Y5547263D02*
X12364634D01*
X12395068Y5577703D01*
X13000731Y6082289D02*
X13012212Y6070808D01*
X13120299Y5980862D02*
X13145297D01*
X13030351Y6070808D02*
X13120299Y5980862D01*
X13012212Y6070808D02*
X13030351D01*
X13570300Y5800862D02*
X13675792D01*
X13710854Y5765800D01*
X13721080D01*
X16384682Y5978063D02*
X16391463Y5971286D01*
Y5858942D02*
Y5971286D01*
Y5858942D02*
X16398241Y5852160D01*
X18621599Y5726262D02*
Y5806775D01*
X18590260Y5838114D02*
X18621599Y5806775D01*
X18590260Y5838114D02*
Y5852160D01*
X19046600Y5546263D02*
X19047150Y5546811D01*
D18*
X18826598Y5726262D02*
X19046600D01*
X18646597Y5546263D02*
X18826598Y5726262D01*
X18621599Y5546263D02*
X18646597D01*
X10703998Y5167660D02*
X10883998Y5347660D01*
X11104001D01*
X10678998Y5167660D02*
X10703998D01*
X11129001Y5347660D02*
X11328604Y5547263D01*
X11104001Y5347660D02*
X11129001D01*
X11328604Y5547263D02*
X11901099D01*
X11926099D01*
X12106098Y5727263D02*
X12326102D01*
X11926099Y5547263D02*
X12106098Y5727263D01*
X12326102D02*
X12351102D01*
X12424701Y5800862D02*
X13145297D01*
X12351102Y5727263D02*
X12424701Y5800862D01*
X13350298Y5980862D02*
X13570300D01*
X13170297Y5800862D02*
X13350298Y5980862D01*
X13145297Y5800862D02*
X13170297D01*
X14156203Y6354458D02*
X14531200Y5979462D01*
X14556200D01*
X13571700D02*
X14531200D01*
X13570300Y5980862D02*
X13571700Y5979462D01*
X14556200D02*
X14557599Y5978063D01*
X14156203Y6354458D02*
Y6400017D01*
X14146272Y6409948D02*
X14156203Y6400017D01*
X14982600Y6158062D02*
X15325258D01*
X15505258Y5978063D02*
X15959679D01*
X15325258Y6158062D02*
X15505258Y5978063D01*
X14762598Y6158062D02*
X14982600D01*
X14557599Y5978063D02*
X14582597D01*
X14762598Y6158062D01*
X15959248Y5819569D02*
X15968752Y5829071D01*
X15958820Y5819140D02*
X15959248Y5819569D01*
X16359682Y6158062D02*
X16384682D01*
X16030690Y5829071D02*
X16359682Y6158062D01*
X15968752Y5829071D02*
X16030690D01*
X16409682Y6158062D02*
X16767480Y5800263D01*
X17376999D01*
X16384682Y6158062D02*
X16409682D01*
X17581998Y5980262D02*
X17802000D01*
X17376999Y5800263D02*
X17401997D01*
X17581998Y5980262D01*
X17802000D02*
X18162599D01*
X18596599Y5546263D02*
X18621599D01*
X18162599Y5980262D02*
X18596599Y5546263D01*
X19715771Y5167762D02*
X19845798D01*
X19168752Y5714782D02*
X19715771Y5167762D01*
X19058083Y5714782D02*
X19168752D01*
X20065800Y5167762D02*
X20245799Y5347762D01*
X20270799D01*
X19845798Y5167762D02*
X20065800D01*
X15959248Y5977633D02*
X15959679Y5978063D01*
X15959248Y5819569D02*
Y5977633D01*
X15355257Y5758180D02*
X15435526Y5838449D01*
X14748584Y5758180D02*
X15355257D01*
X14727943Y5778820D02*
X14748584Y5758180D01*
X14704724Y5798820D02*
X14724724Y5778820D01*
X14727943D01*
X14693900Y5798820D02*
X14704724D01*
X15435526Y5838449D02*
X15789651D01*
D19*
X14427200Y6299200D02*
D03*
X15138400Y5892800D02*
D03*
X15875000Y6299200D02*
D03*
X17399001Y6121400D02*
D03*
X19837399Y5486400D02*
D03*
X20497800Y5232400D02*
D03*
X14146272Y6409948D02*
D03*
X14693900Y5798820D02*
D03*
X10521691Y5406649D02*
D03*
X11265911Y5167889D02*
D03*
X11735811Y5785109D02*
D03*
X12484100Y5641340D02*
D03*
X13000731Y6082289D02*
D03*
X13721080Y5765800D02*
D03*
X16398241Y5852160D02*
D03*
X17909540Y5699760D02*
D03*
X18590260Y5852160D02*
D03*
X15789651Y5838449D02*
D03*
X15958820Y5819140D02*
D03*
X19227800Y5486400D02*
D03*
D20*
X10678998Y5167660D02*
D03*
X11104001D02*
D03*
X11901099Y5547263D02*
D03*
X12326102D02*
D03*
X13145297Y5800862D02*
D03*
X13570300D02*
D03*
X14557599Y5978063D02*
D03*
X14982600D02*
D03*
X15959679D02*
D03*
X16384682D02*
D03*
X17376999Y5800263D02*
D03*
X17802000D02*
D03*
X18621599Y5546263D02*
D03*
X19046600D02*
D03*
X19845798Y5167762D02*
D03*
X20270799D02*
D03*
D21*
X10678998Y5347660D02*
D03*
X11104001D02*
D03*
X11901099Y5727263D02*
D03*
X12326102D02*
D03*
X13145297Y5980862D02*
D03*
X13570300D02*
D03*
X14557599Y6158062D02*
D03*
X14982600D02*
D03*
X15959679D02*
D03*
X16384682D02*
D03*
X17376999Y5980262D02*
D03*
X17802000D02*
D03*
X18621599Y5726262D02*
D03*
X19046600D02*
D03*
X19845798Y5347762D02*
D03*
X20270799D02*
D03*
%TF.MD5,24d8adcf3314fc2b055764c006b1646f*%
M02*
