%TF.GenerationSoftware,Altium Limited,Altium Designer,24.7.2 (38)*%
G04 Layer_Physical_Order=1*
G04 Layer_Color=255*
%FSLAX45Y45*%
%MOMM*%
%TF.SameCoordinates,B6918A48-4A74-411C-9F4E-45D1434950E3*%
%TF.FilePolarity,Positive*%
%TF.FileFunction,Copper,L1,Top,Signal*%
%TF.Part,Single*%
G01*
G75*
%TA.AperFunction,SMDPad,CuDef*%
%ADD10R,0.85000X1.35000*%
%ADD11R,1.25000X1.10000*%
%ADD12R,1.35000X0.85000*%
%ADD13R,1.20000X1.45000*%
%ADD14R,1.80000X2.20000*%
%ADD15R,0.30000X1.30000*%
%TA.AperFunction,Conductor*%
%ADD16C,0.30000*%
%ADD17C,0.38100*%
%ADD18C,0.50000*%
%TA.AperFunction,ViaPad*%
%ADD19C,0.90000*%
D10*
X10973999Y5168758D02*
D03*
X10809000D02*
D03*
X13440298Y5801959D02*
D03*
X13275301D02*
D03*
X14852599Y5979160D02*
D03*
X14687601D02*
D03*
X16254678D02*
D03*
X16089680D02*
D03*
X17671999Y5801360D02*
D03*
X17507001D02*
D03*
X18910300Y5547360D02*
D03*
X18745302D02*
D03*
X12031101Y5548361D02*
D03*
X12196100D02*
D03*
X19969501Y5194259D02*
D03*
X20134499D02*
D03*
D11*
X13904919Y6245382D02*
D03*
X14139922D02*
D03*
D12*
X15791180Y6150559D02*
D03*
Y5985561D02*
D03*
X17195799Y6010859D02*
D03*
Y5845861D02*
D03*
X18440401Y5756859D02*
D03*
Y5591861D02*
D03*
X19664600Y5435458D02*
D03*
Y5270459D02*
D03*
X10513700Y5106162D02*
D03*
Y5271160D02*
D03*
X11732600Y5491262D02*
D03*
Y5656260D02*
D03*
X12976799Y5782960D02*
D03*
Y5947959D02*
D03*
X14389101Y5972861D02*
D03*
Y6137859D02*
D03*
D13*
X14112921Y6016782D02*
D03*
X13912921D02*
D03*
D14*
X16146301Y5300000D02*
D03*
X14816302D02*
D03*
D15*
X15956300Y5624998D02*
D03*
X15906297D02*
D03*
X15856300D02*
D03*
X15806297D02*
D03*
X15756300D02*
D03*
X15706297D02*
D03*
X15656300D02*
D03*
X15606297D02*
D03*
X15556300D02*
D03*
X15506299D02*
D03*
X15456300D02*
D03*
X15406299D02*
D03*
X15356302D02*
D03*
X15306299D02*
D03*
X15256302D02*
D03*
X15206299D02*
D03*
X15156302D02*
D03*
X15106299D02*
D03*
X15056302D02*
D03*
X15006300D02*
D03*
D16*
X14389101Y6137859D02*
X14399699D01*
X14427200Y6165359D02*
Y6299200D01*
X14399699Y6137859D02*
X14427200Y6165359D01*
X15127229Y5881629D02*
X15138400Y5892800D01*
X14950130Y5881629D02*
X15127229D01*
X15875000Y6282964D02*
Y6299200D01*
X16324442Y6474600D02*
X16522701Y6276340D01*
X15588120Y6474600D02*
X16324442D01*
X16232520Y6431900D02*
X16451579Y6212840D01*
X15506303Y6255624D02*
X15682581Y6431900D01*
X15843680Y6178059D02*
Y6251644D01*
X15456300Y6342781D02*
X15588120Y6474600D01*
X15843680Y6251644D02*
X15875000Y6282964D01*
X16110120Y6389200D02*
X16254678Y6244641D01*
X15791180Y6150559D02*
X15816180D01*
X15784660Y6389200D02*
X16110120D01*
X15682581Y6431900D02*
X16232520D01*
X15816180Y6150559D02*
X15843680Y6178059D01*
X15556300Y6160841D02*
X15784660Y6389200D01*
X16357600Y6522720D02*
X16535400Y6344920D01*
X15406303Y6442644D02*
X15486380Y6522720D01*
X16357600D01*
X17319859Y6109920D02*
X17387520D01*
X17399001Y6121400D01*
X17195799Y6010859D02*
X17220799D01*
X17319859Y6109920D01*
X18910300Y5522360D02*
X18937801Y5494860D01*
X19219341D01*
X18910300Y5522360D02*
Y5547360D01*
X19219341Y5494860D02*
X19227800Y5486400D01*
X19664600Y5435458D02*
X19777100D01*
X19828041Y5486400D02*
X19837399D01*
X19777100Y5435458D02*
X19828041Y5486400D01*
X20134499Y5204900D02*
Y5329001D01*
Y5194259D02*
Y5204900D01*
X20162000Y5232400D01*
X20497800D01*
X13088620Y5582920D02*
X14071600D01*
X13035280Y5529580D02*
X13088620Y5582920D01*
X14071600D02*
X14183360Y5694680D01*
X11376142Y5278120D02*
X11818620D01*
X11265911Y5167889D02*
X11376142Y5278120D01*
X11818620D02*
X11920220Y5379720D01*
X11254430Y5156408D02*
X11265911Y5167889D01*
X11254430Y5090592D02*
Y5156408D01*
X12329160Y5379720D02*
X12407900Y5458460D01*
X11920220Y5379720D02*
X12329160D01*
X12717780Y5458460D02*
X12788900Y5529580D01*
X12407900Y5458460D02*
X12717780D01*
X12788900Y5529580D02*
X13035280D01*
X12391121Y5548361D02*
X12553681D01*
X12631420Y5626100D02*
X14013181D01*
X12553681Y5548361D02*
X12631420Y5626100D01*
X14013181D02*
X14155420Y5768340D01*
X14488161D01*
X13624561Y5669280D02*
X13954761D01*
X14132561Y5847080D02*
X14493240D01*
X13954761Y5669280D02*
X14132561Y5847080D01*
X14467841Y5694680D02*
X14717520Y5445000D01*
X14183360Y5694680D02*
X14467841D01*
X14488161Y5768340D02*
X14768800Y5487700D01*
X14493240Y5847080D02*
X14803120Y5537200D01*
X14960600D01*
X15052040Y5445760D01*
X15138400D01*
X15206299Y5513659D01*
X14913580Y5487699D02*
X14938487D01*
X14984003Y5417277D02*
Y5442184D01*
X14938487Y5487699D02*
X14984003Y5442184D01*
Y5417277D02*
X15031720Y5369560D01*
X14717520Y5445000D02*
X14920799D01*
X14913580Y5487700D02*
X14913580Y5487699D01*
X14768800Y5487700D02*
X14913580D01*
X14941302Y5355839D02*
Y5424497D01*
X14920799Y5445000D02*
X14941302Y5424497D01*
X15031720Y5369560D02*
X15189200D01*
X15256302Y5436662D01*
X14998701Y5298440D02*
X15217140D01*
X14941302Y5355839D02*
X14998701Y5298440D01*
X15217140D02*
X15306303Y5387604D01*
X15256302Y5436662D02*
Y5624998D01*
X18968719Y5811520D02*
X19651981D01*
X20134499Y5329001D01*
X17970500Y6126480D02*
X18653760D01*
X18968719Y5811520D01*
X18910300Y5547360D02*
Y5679440D01*
X18595340Y5994400D02*
X18910300Y5679440D01*
X17907001Y5994400D02*
X18595340D01*
X16535400Y6344920D02*
X17752060D01*
X17970500Y6126480D01*
X16522701Y6276340D02*
X17625060D01*
X17907001Y5994400D01*
X16451579Y6212840D02*
X17452341D01*
X11070377Y5072380D02*
X11236218D01*
X11254430Y5090592D01*
X11026501Y5116256D02*
X11070377Y5072380D01*
X11001497Y5116256D02*
X11026501D01*
X10973999Y5143759D02*
X11001497Y5116256D01*
X10513700Y5271160D02*
X10521691Y5279151D01*
Y5406649D01*
X11732600Y5656260D02*
X11735811Y5659471D01*
Y5785109D01*
X12391121Y5548361D02*
X12484100Y5641340D01*
X12196100Y5548361D02*
X12391121D01*
X13000731Y5971891D02*
Y6082289D01*
X12976799Y5947959D02*
X13000731Y5971891D01*
X13547980Y5669280D02*
X13624561D01*
X13721080Y5765800D01*
X14950130Y5881629D02*
X15068500Y5763260D01*
X14905101Y5926658D02*
X14950130Y5881629D01*
X16254678Y5954161D02*
X16345200Y5863641D01*
X16254678Y5954161D02*
Y5979160D01*
X16345200Y5863641D02*
X16386758D01*
X16398241Y5852160D01*
X15556300Y5624998D02*
Y6160841D01*
X15506303Y5624998D02*
Y6255624D01*
X15456300Y5624998D02*
Y6342781D01*
X15406303Y5624998D02*
Y6442644D01*
X17807941Y5801360D02*
X17909540Y5699760D01*
X17671999Y5801360D02*
X17807941D01*
X17452341Y6212840D02*
X17671999Y5993181D01*
Y5801360D02*
Y5993181D01*
X18550768Y5842229D02*
X18580328D01*
X18590260Y5852160D01*
X18440401Y5756859D02*
X18465399D01*
X18550768Y5842229D01*
X15206299Y5513659D02*
Y5624998D01*
X15306303Y5387604D02*
Y5624998D01*
X13440298Y5776961D02*
Y5801959D01*
Y5776961D02*
X13547980Y5669280D01*
X15356302Y5624998D02*
Y5723164D01*
X15316200Y5763260D02*
X15356302Y5723164D01*
X15068500Y5763260D02*
X15316200D01*
X10973999Y5143759D02*
Y5168758D01*
X16254678Y5979160D02*
Y6244641D01*
X14852599Y5954161D02*
Y5979160D01*
Y5954161D02*
X14880096Y5926658D01*
X14905101D01*
D17*
X15958820Y5707701D02*
X15960349Y5706173D01*
X15958820Y5707701D02*
Y5819140D01*
X15960349Y5670948D02*
Y5706173D01*
D18*
X14146272Y6251734D02*
Y6409948D01*
X14139922Y6245382D02*
X14146272Y6251734D01*
X13904919Y6024783D02*
Y6245382D01*
Y6024783D02*
X13912921Y6016782D01*
X17195799Y5845861D02*
X17220799D01*
X17170801D02*
X17195799D01*
X19664600Y5270459D02*
X19689597D01*
X19639600D02*
X19664600D01*
X14681302Y5972861D02*
X14690750Y5963412D01*
X13296609Y5844459D02*
X13395749Y5943600D01*
X13566141D02*
X13639799Y5869940D01*
X13395749Y5943600D02*
X13566141D01*
X13639799Y5869940D02*
X14062619D01*
X14091908Y5899230D02*
Y5995770D01*
X14112921Y6016782D01*
X14062619Y5869940D02*
X14091908Y5899230D01*
X14112921Y6013811D02*
X14153871Y5972861D01*
X13275301Y5826959D02*
X13292799Y5844459D01*
X13296609D01*
X13275301Y5801959D02*
Y5826959D01*
X16089680Y5954161D02*
X16341542Y5702300D01*
X17052238D02*
X17147353Y5797413D01*
X16341542Y5702300D02*
X17052238D01*
X17147353Y5822412D02*
X17170801Y5845861D01*
X17147353Y5797413D02*
Y5822412D01*
X18745302Y5438038D02*
X18864433Y5318907D01*
X19593829D01*
X18745302Y5438038D02*
Y5547360D01*
X19616148Y5293909D02*
Y5296589D01*
X19593829Y5318907D02*
X19616148Y5296589D01*
Y5293909D02*
X19639600Y5270459D01*
X14690750Y5951012D02*
X14970811Y5670946D01*
X14690750Y5951012D02*
Y5963412D01*
Y5801970D02*
Y5951012D01*
Y5801970D02*
X14693900Y5798820D01*
X15789651Y5838449D02*
Y5984032D01*
X15791180Y5985561D01*
X10601295Y5168758D02*
X10809000D01*
X10538699Y5106162D02*
X10601295Y5168758D01*
X10513700Y5106162D02*
X10538699D01*
X10809000Y5168758D02*
Y5193756D01*
X11106506Y5491262D02*
X11732600D01*
X10809000Y5193756D02*
X11106506Y5491262D01*
X11757599D02*
X11814698Y5548361D01*
X12031101D01*
X11732600Y5491262D02*
X11757599D01*
X12031101Y5573359D02*
X12240702Y5782960D01*
X12031101Y5548361D02*
Y5573359D01*
X12240702Y5782960D02*
X12976799D01*
X13256300D01*
X13275301Y5801959D01*
X14153871Y5972861D02*
X14389101D01*
X14681302D01*
X14970811Y5670946D02*
X14996159D01*
X16089680Y5954161D02*
Y5979160D01*
X15791180Y5985561D02*
X16083279D01*
X16089680Y5979160D01*
X17265298Y5801360D02*
X17507001D01*
X17220799Y5845861D02*
X17265298Y5801360D01*
X17507001Y5776361D02*
X17691501Y5591861D01*
X18440401D01*
X17507001Y5776361D02*
Y5801360D01*
X18509898Y5547360D02*
X18745302D01*
X18465399Y5591861D02*
X18509898Y5547360D01*
X18440401Y5591861D02*
X18465399D01*
X19689597Y5270459D02*
X19765797Y5194259D01*
X19969501D01*
D19*
X14427200Y6299200D02*
D03*
X15138400Y5892800D02*
D03*
X15875000Y6299200D02*
D03*
X17399001Y6121400D02*
D03*
X19837399Y5486400D02*
D03*
X20497800Y5232400D02*
D03*
X14146272Y6409948D02*
D03*
X14693900Y5798820D02*
D03*
X10521691Y5406649D02*
D03*
X11265911Y5167889D02*
D03*
X11735811Y5785109D02*
D03*
X12484100Y5641340D02*
D03*
X13000731Y6082289D02*
D03*
X13721080Y5765800D02*
D03*
X16398241Y5852160D02*
D03*
X17909540Y5699760D02*
D03*
X18590260Y5852160D02*
D03*
X15789651Y5838449D02*
D03*
X15958820Y5819140D02*
D03*
X19227800Y5486400D02*
D03*
%TF.MD5,29430e2875f999a349015e8f0616a578*%
M02*
