%TF.GenerationSoftware,Altium Limited,Altium Designer,24.7.2 (38)*%
G04 Layer_Color=16711935*
%FSLAX45Y45*%
%MOMM*%
%TF.SameCoordinates,B6918A48-4A74-411C-9F4E-45D1434950E3*%
%TF.FilePolarity,Negative*%
%TF.FileFunction,Soldermask,Bot*%
%TF.Part,Single*%
G01*
G75*
%TA.AperFunction,ViaPad*%
%ADD32C,1.10320*%
%TA.AperFunction,SMDPad,CuDef*%
%ADD33O,1.50320X1.00320*%
%ADD34R,1.50320X1.00320*%
D32*
X14427200Y6299200D02*
D03*
X15138400Y5892800D02*
D03*
X15875000Y6299200D02*
D03*
X17399001Y6121400D02*
D03*
X19837399Y5486400D02*
D03*
X20497800Y5232400D02*
D03*
X14146272Y6409948D02*
D03*
X14693900Y5798820D02*
D03*
X10521691Y5406649D02*
D03*
X11265911Y5167889D02*
D03*
X11735811Y5785109D02*
D03*
X12484100Y5641340D02*
D03*
X13000731Y6082289D02*
D03*
X13721080Y5765800D02*
D03*
X16398241Y5852160D02*
D03*
X17909540Y5699760D02*
D03*
X18590260Y5852160D02*
D03*
X15789651Y5838449D02*
D03*
X15958820Y5819140D02*
D03*
X19227800Y5486400D02*
D03*
D33*
X10678998Y5167660D02*
D03*
X11104001D02*
D03*
X11901099Y5547263D02*
D03*
X12326102D02*
D03*
X13145297Y5800862D02*
D03*
X13570300D02*
D03*
X14557599Y5978063D02*
D03*
X14982600D02*
D03*
X15959679D02*
D03*
X16384682D02*
D03*
X17376999Y5800263D02*
D03*
X17802000D02*
D03*
X18621599Y5546263D02*
D03*
X19046600D02*
D03*
X19845798Y5167762D02*
D03*
X20270799D02*
D03*
D34*
X10678998Y5347660D02*
D03*
X11104001D02*
D03*
X11901099Y5727263D02*
D03*
X12326102D02*
D03*
X13145297Y5980862D02*
D03*
X13570300D02*
D03*
X14557599Y6158062D02*
D03*
X14982600D02*
D03*
X15959679D02*
D03*
X16384682D02*
D03*
X17376999Y5980262D02*
D03*
X17802000D02*
D03*
X18621599Y5726262D02*
D03*
X19046600D02*
D03*
X19845798Y5347762D02*
D03*
X20270799D02*
D03*
%TF.MD5,6a9009ea7fc34638e30206757ec6f255*%
M02*
