%TF.GenerationSoftware,Altium Limited,Altium Designer,24.2.2 (26)*%
G04 Layer_Color=8388736*
%FSLAX45Y45*%
%MOMM*%
%TF.SameCoordinates,259198F7-C233-4D65-A8A2-2B75CB696E96*%
%TF.FilePolarity,Negative*%
%TF.FileFunction,Soldermask,Top*%
%TF.Part,Single*%
G01*
G75*
%TA.AperFunction,SMDPad,CuDef*%
%ADD12R,1.20606X1.05822*%
%ADD14R,1.06822X1.20651*%
%ADD15R,2.00000X4.00000*%
%ADD16R,1.20651X1.06822*%
%TA.AperFunction,ConnectorPad*%
%ADD33R,0.50320X1.50320*%
%ADD34R,2.00320X2.40320*%
%TA.AperFunction,SMDPad,CuDef*%
%ADD35R,2.70320X3.70320*%
%TA.AperFunction,ComponentPad*%
%ADD36C,1.72720*%
%ADD37R,1.72720X1.72720*%
%ADD38C,1.75320*%
%ADD39R,1.72720X1.72720*%
%ADD40C,1.40320*%
%ADD41R,1.40320X1.40320*%
%TA.AperFunction,ViaPad*%
%ADD42C,1.47320*%
D12*
X6197600Y3200400D02*
D03*
X6362817D02*
D03*
D14*
X7010400Y4152971D02*
D03*
Y3987800D02*
D03*
D15*
X7366000Y6197001D02*
D03*
Y5486999D02*
D03*
D16*
X6108629Y4572000D02*
D03*
X6273800D02*
D03*
D33*
X10127000Y6787002D02*
D03*
X10076998D02*
D03*
X10027001D02*
D03*
X9976998D02*
D03*
X9927001D02*
D03*
X9876998D02*
D03*
X9827001D02*
D03*
X9776998D02*
D03*
X9727001D02*
D03*
X9676999D02*
D03*
X9627001D02*
D03*
X9576999D02*
D03*
X9527002D02*
D03*
X9476999D02*
D03*
X9427002D02*
D03*
X9376999D02*
D03*
X9327002D02*
D03*
X9276999D02*
D03*
X9227002D02*
D03*
X9177000D02*
D03*
D34*
X10317002Y7112000D02*
D03*
X8987003D02*
D03*
D35*
X8382000Y6166998D02*
D03*
Y5517002D02*
D03*
D36*
X12090400Y4699000D02*
D03*
X11836400D02*
D03*
X11582400D02*
D03*
X11328400D02*
D03*
X11074400D02*
D03*
X10820400D02*
D03*
X10566400D02*
D03*
X10312400D02*
D03*
X10058400D02*
D03*
X9804400D02*
D03*
X9550400D02*
D03*
X9296400D02*
D03*
X9042400D02*
D03*
X8788400D02*
D03*
X8534400D02*
D03*
X8280400D02*
D03*
X8026400D02*
D03*
X7772400D02*
D03*
X7518400D02*
D03*
X7264400D02*
D03*
X7010400D02*
D03*
X12344400Y2159000D02*
D03*
X12090400D02*
D03*
X11836400D02*
D03*
X11582400D02*
D03*
X11328400D02*
D03*
X11074400D02*
D03*
X10820400D02*
D03*
X10566400D02*
D03*
X10312400D02*
D03*
X10058400D02*
D03*
X9804400D02*
D03*
X9550400D02*
D03*
X9296400D02*
D03*
X9042400D02*
D03*
X8788400D02*
D03*
X8280400D02*
D03*
X8026400D02*
D03*
X7772400D02*
D03*
X7518400D02*
D03*
X7264400D02*
D03*
X7010400D02*
D03*
X12344400Y4699000D02*
D03*
X8534400Y2159000D02*
D03*
X6604000Y3733800D02*
D03*
Y3987800D02*
D03*
Y4241800D02*
D03*
X5842000Y3479800D02*
D03*
Y3733800D02*
D03*
Y3987800D02*
D03*
Y4241800D02*
D03*
X9169400Y4013200D02*
D03*
X9423400D02*
D03*
X9677400D02*
D03*
X9931400D02*
D03*
X10185400D02*
D03*
X10439400D02*
D03*
X10693400D02*
D03*
Y2743200D02*
D03*
X10439400D02*
D03*
X10185400D02*
D03*
X9931400D02*
D03*
X9677400D02*
D03*
X9423400D02*
D03*
X9169400D02*
D03*
X8915400D02*
D03*
X13970000Y2667000D02*
D03*
Y2413000D02*
D03*
Y2159000D02*
D03*
Y1905000D02*
D03*
Y1651000D02*
D03*
X5334000Y1905000D02*
D03*
Y2159000D02*
D03*
Y2413000D02*
D03*
Y2667000D02*
D03*
Y2921000D02*
D03*
D37*
X6604000Y3479800D02*
D03*
X13970000Y2921000D02*
D03*
X5334000Y1651000D02*
D03*
D38*
X5822198Y2819400D02*
D03*
X6776202D02*
D03*
D39*
X8915400Y4013200D02*
D03*
D40*
X4816998Y3583000D02*
D03*
D41*
Y3783000D02*
D03*
D42*
X7688580Y6286500D02*
D03*
X8940800Y5034280D02*
D03*
X9713676Y4557476D02*
D03*
X10439400Y4800600D02*
D03*
X10693400Y4808220D02*
D03*
X9977120Y7053580D02*
D03*
X8382000Y6898640D02*
D03*
%TF.MD5,62312edd74b9e139812b21e2cd61ca4b*%
M02*
