%TF.GenerationSoftware,Altium Limited,Altium Designer,24.2.2 (26)*%
G04 Layer_Color=32896*
%FSLAX45Y45*%
%MOMM*%
%TF.SameCoordinates,259198F7-C233-4D65-A8A2-2B75CB696E96*%
%TF.FilePolarity,Positive*%
%TF.FileFunction,Legend,Bot*%
%TF.Part,Single*%
G01*
G75*
%TA.AperFunction,NonConductor*%
%ADD30C,0.20000*%
%ADD32C,0.25400*%
D30*
X5910011Y2981289D02*
Y3267111D01*
X5723189Y2981289D02*
Y3267111D01*
X5443789Y3844889D02*
Y4130711D01*
X5630611Y3844889D02*
Y4130711D01*
D32*
X8661400Y3266440D02*
Y3418791D01*
X8585225D01*
X8559833Y3393399D01*
Y3342615D01*
X8585225Y3317223D01*
X8661400D01*
X8610617D02*
X8559833Y3266440D01*
X8407482D02*
X8509049D01*
X8407482Y3368007D01*
Y3393399D01*
X8432874Y3418791D01*
X8483657D01*
X8509049Y3393399D01*
X5369560Y3759200D02*
Y3911551D01*
X5293385D01*
X5267993Y3886159D01*
Y3835375D01*
X5293385Y3809983D01*
X5369560D01*
X5318777D02*
X5267993Y3759200D01*
X5217209D02*
X5166426D01*
X5191817D01*
Y3911551D01*
X5217209Y3886159D01*
X10795000Y4368751D02*
X10744217D01*
X10769608D01*
Y4216400D01*
X10795000D01*
X10744217D01*
X10668041D02*
X10617258D01*
X10642649D01*
Y4368751D01*
X10668041Y4343359D01*
X5880133Y3530559D02*
X5905525Y3555951D01*
X5956308D01*
X5981700Y3530559D01*
Y3428992D01*
X5956308Y3403600D01*
X5905525D01*
X5880133Y3428992D01*
X5829349Y3530559D02*
X5803957Y3555951D01*
X5753174D01*
X5727782Y3530559D01*
Y3505167D01*
X5753174Y3479775D01*
X5778566D01*
X5753174D01*
X5727782Y3454383D01*
Y3428992D01*
X5753174Y3403600D01*
X5803957D01*
X5829349Y3428992D01*
X5600733Y4394159D02*
X5626125Y4419551D01*
X5676908D01*
X5702300Y4394159D01*
Y4292592D01*
X5676908Y4267200D01*
X5626125D01*
X5600733Y4292592D01*
X5448382Y4267200D02*
X5549949D01*
X5448382Y4368767D01*
Y4394159D01*
X5473774Y4419551D01*
X5524557D01*
X5549949Y4394159D01*
%TF.MD5,cc7b69158fe0812d770cd895d4ba2847*%
M02*
