%TF.GenerationSoftware,Altium Limited,Altium Designer,24.2.2 (26)*%
G04 Layer_Color=16711935*
%FSLAX45Y45*%
%MOMM*%
%TF.SameCoordinates,259198F7-C233-4D65-A8A2-2B75CB696E96*%
%TF.FilePolarity,Negative*%
%TF.FileFunction,Soldermask,Bot*%
%TF.Part,Single*%
G01*
G75*
%TA.AperFunction,SMDPad,CuDef*%
%ADD14R,1.06822X1.20651*%
%TA.AperFunction,ComponentPad*%
%ADD36C,1.72720*%
%ADD37R,1.72720X1.72720*%
%ADD38C,1.75320*%
%ADD39R,1.72720X1.72720*%
%ADD40C,1.40320*%
%ADD41R,1.40320X1.40320*%
%TA.AperFunction,ViaPad*%
%ADD42C,1.47320*%
%TA.AperFunction,SMDPad,CuDef*%
%ADD43R,1.00320X1.20320*%
%ADD44R,1.20320X1.00320*%
D14*
X5816600Y3206786D02*
D03*
Y3041614D02*
D03*
X5537200Y3905214D02*
D03*
Y4070386D02*
D03*
D36*
X12090400Y4699000D02*
D03*
X11836400D02*
D03*
X11582400D02*
D03*
X11328400D02*
D03*
X11074400D02*
D03*
X10820400D02*
D03*
X10566400D02*
D03*
X10312400D02*
D03*
X10058400D02*
D03*
X9804400D02*
D03*
X9550400D02*
D03*
X9296400D02*
D03*
X9042400D02*
D03*
X8788400D02*
D03*
X8534400D02*
D03*
X8280400D02*
D03*
X8026400D02*
D03*
X7772400D02*
D03*
X7518400D02*
D03*
X7264400D02*
D03*
X7010400D02*
D03*
X12344400Y2159000D02*
D03*
X12090400D02*
D03*
X11836400D02*
D03*
X11582400D02*
D03*
X11328400D02*
D03*
X11074400D02*
D03*
X10820400D02*
D03*
X10566400D02*
D03*
X10312400D02*
D03*
X10058400D02*
D03*
X9804400D02*
D03*
X9550400D02*
D03*
X9296400D02*
D03*
X9042400D02*
D03*
X8788400D02*
D03*
X8280400D02*
D03*
X8026400D02*
D03*
X7772400D02*
D03*
X7518400D02*
D03*
X7264400D02*
D03*
X7010400D02*
D03*
X12344400Y4699000D02*
D03*
X8534400Y2159000D02*
D03*
X6604000Y3733800D02*
D03*
Y3987800D02*
D03*
Y4241800D02*
D03*
X5842000Y3479800D02*
D03*
Y3733800D02*
D03*
Y3987800D02*
D03*
Y4241800D02*
D03*
X9169400Y4013200D02*
D03*
X9423400D02*
D03*
X9677400D02*
D03*
X9931400D02*
D03*
X10185400D02*
D03*
X10439400D02*
D03*
X10693400D02*
D03*
Y2743200D02*
D03*
X10439400D02*
D03*
X10185400D02*
D03*
X9931400D02*
D03*
X9677400D02*
D03*
X9423400D02*
D03*
X9169400D02*
D03*
X8915400D02*
D03*
X13970000Y2667000D02*
D03*
Y2413000D02*
D03*
Y2159000D02*
D03*
Y1905000D02*
D03*
Y1651000D02*
D03*
X5334000Y1905000D02*
D03*
Y2159000D02*
D03*
Y2413000D02*
D03*
Y2667000D02*
D03*
Y2921000D02*
D03*
D37*
X6604000Y3479800D02*
D03*
X13970000Y2921000D02*
D03*
X5334000Y1651000D02*
D03*
D38*
X5822198Y2819400D02*
D03*
X6776202D02*
D03*
D39*
X8915400Y4013200D02*
D03*
D40*
X4816998Y3583000D02*
D03*
D41*
Y3783000D02*
D03*
D42*
X7688580Y6286500D02*
D03*
X8940800Y5034280D02*
D03*
X9713676Y4557476D02*
D03*
X10439400Y4800600D02*
D03*
X10693400Y4808220D02*
D03*
X9977120Y7053580D02*
D03*
X8382000Y6898640D02*
D03*
D43*
X5383601Y3581400D02*
D03*
X5233599D02*
D03*
D44*
X8585200Y3097601D02*
D03*
Y2947599D02*
D03*
%TF.MD5,727a37bb571585ee5bad5dba7409d6e2*%
M02*
