%TF.GenerationSoftware,Altium Limited,Altium Designer,24.2.2 (26)*%
G04 Layer_Physical_Order=1*
G04 Layer_Color=255*
%FSLAX45Y45*%
%MOMM*%
%TF.SameCoordinates,259198F7-C233-4D65-A8A2-2B75CB696E96*%
%TF.FilePolarity,Positive*%
%TF.FileFunction,Copper,L1,Top,Signal*%
%TF.Part,Single*%
G01*
G75*
%TA.AperFunction,ConnectorPad*%
%ADD10R,0.30000X1.30000*%
%ADD11R,1.80000X2.20000*%
%TA.AperFunction,SMDPad,CuDef*%
%ADD12R,1.20606X1.05822*%
%ADD13R,2.50000X3.50000*%
%ADD14R,1.06822X1.20651*%
%ADD15R,2.00000X4.00000*%
%ADD16R,1.20651X1.06822*%
%TA.AperFunction,Conductor*%
%ADD17C,0.30000*%
%ADD18C,0.70000*%
%ADD19C,0.40000*%
%TA.AperFunction,ComponentPad*%
%ADD20C,1.52400*%
%ADD21R,1.52400X1.52400*%
%ADD22C,1.55000*%
%ADD23R,1.52400X1.52400*%
%ADD24C,1.20000*%
%ADD25R,1.20000X1.20000*%
%TA.AperFunction,ViaPad*%
%ADD26C,1.27000*%
D10*
X10127000Y6787002D02*
D03*
X10076998D02*
D03*
X10027001D02*
D03*
X9976998D02*
D03*
X9927001D02*
D03*
X9876998D02*
D03*
X9827001D02*
D03*
X9776998D02*
D03*
X9727001D02*
D03*
X9676999D02*
D03*
X9627001D02*
D03*
X9576999D02*
D03*
X9527002D02*
D03*
X9476999D02*
D03*
X9427002D02*
D03*
X9376999D02*
D03*
X9327002D02*
D03*
X9276999D02*
D03*
X9227002D02*
D03*
X9177000D02*
D03*
D11*
X10317002Y7112000D02*
D03*
X8987003D02*
D03*
D12*
X6197600Y3200400D02*
D03*
X6362817D02*
D03*
D13*
X8382000Y6166998D02*
D03*
Y5517002D02*
D03*
D14*
X7010400Y4152971D02*
D03*
Y3987800D02*
D03*
D15*
X7366000Y6197001D02*
D03*
Y5486999D02*
D03*
D16*
X6108629Y4572000D02*
D03*
X6273800D02*
D03*
D17*
X6451600Y4241800D02*
X6604000D01*
X6273800Y4419600D02*
Y4572000D01*
Y4419600D02*
X6451600Y4241800D01*
X7366000Y6197001D02*
Y6201500D01*
X7451000Y6286500D01*
X7366000Y6097001D02*
Y6197001D01*
X7239000Y4152971D02*
X8775629D01*
X5842000Y3479800D02*
X6121400Y3200400D01*
X6197600D01*
X8940800Y4241800D02*
Y5034280D01*
Y4241800D02*
X9169400Y4013200D01*
X9713676Y4557476D01*
X9423400Y2286000D02*
Y2743200D01*
X9296400Y2159000D02*
X9423400Y2286000D01*
X9550400Y2159000D02*
X9931400Y2540000D01*
Y2743200D01*
X9804400Y2159000D02*
X10185400Y2540000D01*
Y2743200D01*
X8775629Y4152971D02*
X8915400Y4013200D01*
X6362817Y3200400D02*
X6395202D01*
X6776202Y2819400D01*
X5638800Y3784600D02*
X5842000Y3987800D01*
X5638800Y3251200D02*
Y3784600D01*
Y3251200D02*
X5867400Y3022600D01*
X6196879D01*
X6362817Y3188538D01*
Y3200400D01*
X9576999Y6692900D02*
Y6787002D01*
X9342120Y6458021D02*
X9576999Y6692900D01*
X9342120Y5161280D02*
Y6458021D01*
Y5161280D02*
X9804400Y4699000D01*
X8382000Y5105400D02*
Y5517002D01*
Y5105400D02*
X8788400Y4699000D01*
X11582400D02*
Y4933361D01*
X9927001Y6588760D02*
X11582400Y4933361D01*
X9927001Y6588760D02*
Y6787002D01*
X11328400Y4699000D02*
Y4939238D01*
X9876998Y6390640D02*
X11328400Y4939238D01*
X9876998Y6390640D02*
Y6787002D01*
X7366000Y5054600D02*
Y5486999D01*
X7010400Y4699000D02*
X7366000Y5054600D01*
X10127000Y6662400D02*
Y6787002D01*
Y6662400D02*
X12090400Y4699000D01*
X10439400Y4013200D02*
Y4800600D01*
X9627001Y6631940D02*
Y6787002D01*
X9382760Y6387699D02*
X9627001Y6631940D01*
X9382760Y5374640D02*
Y6387699D01*
Y5374640D02*
X10058400Y4699000D01*
X11074400D02*
Y4973061D01*
X9827001Y6220460D02*
X11074400Y4973061D01*
X9827001Y6220460D02*
Y6787002D01*
X10566400Y4699000D02*
Y5219700D01*
X9727001Y6059099D02*
X10566400Y5219700D01*
X9727001Y6059099D02*
Y6787002D01*
X10820400Y4699000D02*
Y5140960D01*
X9776998Y6184362D02*
X10820400Y5140960D01*
X9776998Y6184362D02*
Y6787002D01*
X10693400Y4013200D02*
Y4808220D01*
X7010400Y4152971D02*
X7239000D01*
X7264400Y4127571D01*
Y2159000D02*
Y4127571D01*
X10076998Y6787002D02*
Y6953702D01*
X9977120Y7053580D02*
X10076998Y6953702D01*
X8382000Y6166998D02*
Y6898640D01*
X10439400Y2540000D02*
Y2743200D01*
X10058400Y2159000D02*
X10439400Y2540000D01*
X9676999Y6446520D02*
Y6787002D01*
X9423400Y6192921D02*
X9676999Y6446520D01*
X9423400Y5588000D02*
Y6192921D01*
Y5588000D02*
X10312400Y4699000D01*
X10693400Y2743200D02*
Y4013200D01*
D18*
X7451000Y6286500D02*
X7688580D01*
X5842000Y3479800D02*
X6108629Y3746429D01*
Y4572000D01*
Y4711629D01*
X6248400Y4851400D01*
X6502400D01*
X6858000Y5207000D01*
Y5589001D01*
X7366000Y6097001D01*
X5334000Y2921000D02*
X5435600Y2819400D01*
X5822198D01*
X5334000Y2921000D02*
Y3265998D01*
X4816998Y3783000D02*
X5334000Y3265998D01*
X5822198Y2819400D02*
X6482598Y2159000D01*
X7010400D01*
X6604000Y3987800D02*
X7010400D01*
D19*
Y4152971D02*
Y4699000D01*
X7366000Y5486999D02*
X7752004D01*
X8382000Y6116996D01*
Y6166998D01*
D20*
X12090400Y4699000D02*
D03*
X11836400D02*
D03*
X11582400D02*
D03*
X11328400D02*
D03*
X11074400D02*
D03*
X10820400D02*
D03*
X10566400D02*
D03*
X10312400D02*
D03*
X10058400D02*
D03*
X9804400D02*
D03*
X9550400D02*
D03*
X9296400D02*
D03*
X9042400D02*
D03*
X8788400D02*
D03*
X8534400D02*
D03*
X8280400D02*
D03*
X8026400D02*
D03*
X7772400D02*
D03*
X7518400D02*
D03*
X7264400D02*
D03*
X7010400D02*
D03*
X12344400Y2159000D02*
D03*
X12090400D02*
D03*
X11836400D02*
D03*
X11582400D02*
D03*
X11328400D02*
D03*
X11074400D02*
D03*
X10820400D02*
D03*
X10566400D02*
D03*
X10312400D02*
D03*
X10058400D02*
D03*
X9804400D02*
D03*
X9550400D02*
D03*
X9296400D02*
D03*
X9042400D02*
D03*
X8788400D02*
D03*
X8280400D02*
D03*
X8026400D02*
D03*
X7772400D02*
D03*
X7518400D02*
D03*
X7264400D02*
D03*
X7010400D02*
D03*
X12344400Y4699000D02*
D03*
X8534400Y2159000D02*
D03*
X6604000Y3733800D02*
D03*
Y3987800D02*
D03*
Y4241800D02*
D03*
X5842000Y3479800D02*
D03*
Y3733800D02*
D03*
Y3987800D02*
D03*
Y4241800D02*
D03*
X9169400Y4013200D02*
D03*
X9423400D02*
D03*
X9677400D02*
D03*
X9931400D02*
D03*
X10185400D02*
D03*
X10439400D02*
D03*
X10693400D02*
D03*
Y2743200D02*
D03*
X10439400D02*
D03*
X10185400D02*
D03*
X9931400D02*
D03*
X9677400D02*
D03*
X9423400D02*
D03*
X9169400D02*
D03*
X8915400D02*
D03*
X13970000Y2667000D02*
D03*
Y2413000D02*
D03*
Y2159000D02*
D03*
Y1905000D02*
D03*
Y1651000D02*
D03*
X5334000Y1905000D02*
D03*
Y2159000D02*
D03*
Y2413000D02*
D03*
Y2667000D02*
D03*
Y2921000D02*
D03*
D21*
X6604000Y3479800D02*
D03*
X13970000Y2921000D02*
D03*
X5334000Y1651000D02*
D03*
D22*
X5822198Y2819400D02*
D03*
X6776202D02*
D03*
D23*
X8915400Y4013200D02*
D03*
D24*
X4816998Y3583000D02*
D03*
D25*
Y3783000D02*
D03*
D26*
X7688580Y6286500D02*
D03*
X8940800Y5034280D02*
D03*
X9713676Y4557476D02*
D03*
X10439400Y4800600D02*
D03*
X10693400Y4808220D02*
D03*
X9977120Y7053580D02*
D03*
X8382000Y6898640D02*
D03*
%TF.MD5,83d333d808be6545b6bbba9fec6b2867*%
M02*
