%TF.GenerationSoftware,Altium Limited,Altium Designer,24.7.2 (38)*%
G04 Layer_Color=8421504*
%FSLAX45Y45*%
%MOMM*%
%TF.SameCoordinates,4658354D-353F-4C49-8F46-90FD7368F250*%
%TF.FilePolarity,Positive*%
%TF.FileFunction,Paste,Top*%
%TF.Part,Single*%
G01*
G75*
%TA.AperFunction,SMDPad,CuDef*%
%ADD10R,1.80000X2.20000*%
%ADD11R,0.30000X1.30000*%
%ADD12R,3.20000X1.60000*%
%ADD13R,7.00000X1.52400*%
%ADD14R,1.25000X1.10000*%
%ADD15R,1.20000X1.45000*%
D10*
X7666200Y6832600D02*
D03*
X8996200D02*
D03*
D11*
X7856200Y6507600D02*
D03*
X7906200D02*
D03*
X7956200D02*
D03*
X8006200D02*
D03*
X8056200D02*
D03*
X8106200D02*
D03*
X8156200D02*
D03*
X8206200D02*
D03*
X8256200D02*
D03*
X8306200D02*
D03*
X8356200D02*
D03*
X8406200D02*
D03*
X8456200D02*
D03*
X8506200D02*
D03*
X8556200D02*
D03*
X8606200D02*
D03*
X8656200D02*
D03*
X8706200D02*
D03*
X8756200D02*
D03*
X8806200D02*
D03*
D12*
X4453700Y5334000D02*
D03*
X3953700D02*
D03*
Y4470400D02*
D03*
X4453700D02*
D03*
D13*
X13144501Y2286000D02*
D03*
X3505200Y2032000D02*
D03*
Y2286000D02*
D03*
Y2540000D02*
D03*
Y2794000D02*
D03*
Y3048000D02*
D03*
Y3302000D02*
D03*
X13144501D02*
D03*
Y3048000D02*
D03*
Y2794000D02*
D03*
Y2540000D02*
D03*
Y2032000D02*
D03*
D14*
X3994200Y3810000D02*
D03*
X3759200D02*
D03*
D15*
X3341700D02*
D03*
X3541700D02*
D03*
%TF.MD5,b3741797a99979d478cb5c62b6580d10*%
M02*
