%TF.GenerationSoftware,Altium Limited,Altium Designer,24.7.2 (38)*%
G04 Layer_Color=32896*
%FSLAX45Y45*%
%MOMM*%
%TF.SameCoordinates,4658354D-353F-4C49-8F46-90FD7368F250*%
%TF.FilePolarity,Positive*%
%TF.FileFunction,Legend,Bot*%
%TF.Part,Single*%
G01*
G75*
%TA.AperFunction,NonConductor*%
%ADD37C,0.20000*%
%ADD41C,0.12700*%
%ADD42C,0.25400*%
D37*
X3842600Y4611400D02*
G03*
X3842600Y4611400I-10000J0D01*
G01*
X3904100Y4390500D02*
X3919100D01*
X3904100Y4245500D02*
X3919100D01*
X4285100D02*
X4300100D01*
X4285100Y4390500D02*
X4300100D01*
D41*
X4117600Y4526400D02*
Y5176400D01*
X4467600D01*
Y4526400D02*
Y5176400D01*
X4117600Y4526400D02*
X4467600D01*
D42*
X7658046Y4813275D02*
X7607263D01*
X7632655D01*
Y4660925D01*
X7658046D01*
X7607263D01*
X7429520Y4787883D02*
X7454912Y4813275D01*
X7505696D01*
X7531088Y4787883D01*
Y4686317D01*
X7505696Y4660925D01*
X7454912D01*
X7429520Y4686317D01*
X7378737Y4660925D02*
X7327953D01*
X7353345D01*
Y4813275D01*
X7378737Y4787883D01*
X3594092Y4368783D02*
X3619483Y4394175D01*
X3670267D01*
X3695659Y4368783D01*
Y4267217D01*
X3670267Y4241825D01*
X3619483D01*
X3594092Y4267217D01*
X3467133Y4241825D02*
Y4394175D01*
X3543308Y4318000D01*
X3441741D01*
X6492240Y2870200D02*
Y3022551D01*
X6416065D01*
X6390673Y2997159D01*
Y2946375D01*
X6416065Y2920983D01*
X6492240D01*
X6441457D02*
X6390673Y2870200D01*
X6238322D02*
X6339889D01*
X6238322Y2971767D01*
Y2997159D01*
X6263714Y3022551D01*
X6314497D01*
X6339889Y2997159D01*
X4571992Y4127483D02*
X4597383Y4152875D01*
X4648167D01*
X4673559Y4127483D01*
Y4025917D01*
X4648167Y4000525D01*
X4597383D01*
X4571992Y4025917D01*
X4419641Y4000525D02*
X4521208D01*
X4419641Y4102092D01*
Y4127483D01*
X4445033Y4152875D01*
X4495816D01*
X4521208Y4127483D01*
X4693920Y5433011D02*
Y5280660D01*
X4617745D01*
X4592353Y5306052D01*
Y5331443D01*
X4617745Y5356835D01*
X4693920D01*
X4617745D01*
X4592353Y5382227D01*
Y5407619D01*
X4617745Y5433011D01*
X4693920D01*
X4541569Y5280660D02*
X4490786D01*
X4516177D01*
Y5433011D01*
X4541569Y5407619D01*
%TF.MD5,a0eefc87cb6b8c38680863e69264b8ed*%
M02*
