%TF.GenerationSoftware,Altium Limited,Altium Designer,24.7.2 (38)*%
G04 Layer_Color=0*
%FSLAX45Y45*%
%MOMM*%
%TF.SameCoordinates,4658354D-353F-4C49-8F46-90FD7368F250*%
%TF.FilePolarity,Positive*%
%TF.FileFunction,Profile,NP*%
%TF.Part,Single*%
G01*
G75*
%TA.AperFunction,Profile*%
%ADD55C,0.02540*%
G36*
X8216365Y1457935D02*
Y1447840D01*
X8220304Y1428037D01*
X8228031Y1409383D01*
X8239248Y1392595D01*
X8253525Y1378318D01*
X8270313Y1367101D01*
X8288967Y1359374D01*
X8308770Y1355435D01*
X8318865D01*
X8328960D01*
X8348763Y1359374D01*
X8367417Y1367101D01*
X8384205Y1378318D01*
X8398482Y1392595D01*
X8409699Y1409383D01*
X8417426Y1428037D01*
X8421365Y1447840D01*
Y1457935D01*
Y1468030D01*
X8417426Y1487833D01*
X8409699Y1506487D01*
X8398482Y1523275D01*
X8384205Y1537552D01*
X8367417Y1548769D01*
X8348763Y1556496D01*
X8328960Y1560435D01*
X8318865D01*
X8308770D01*
X8288967Y1556496D01*
X8270313Y1548769D01*
X8253525Y1537552D01*
X8239248Y1523275D01*
X8228031Y1506487D01*
X8220304Y1487833D01*
X8216365Y1468030D01*
Y1457935D01*
D01*
D02*
G37*
G36*
X8228700Y5956300D02*
Y5946205D01*
X8232639Y5926402D01*
X8240366Y5907748D01*
X8251583Y5890960D01*
X8265860Y5876683D01*
X8282648Y5865466D01*
X8301302Y5857739D01*
X8321105Y5853800D01*
X8331200D01*
X8341295D01*
X8361098Y5857739D01*
X8379752Y5865466D01*
X8396540Y5876683D01*
X8410817Y5890960D01*
X8422034Y5907748D01*
X8429761Y5926402D01*
X8433700Y5946205D01*
Y5956300D01*
Y5966395D01*
X8429761Y5986198D01*
X8422034Y6004852D01*
X8410817Y6021640D01*
X8396540Y6035917D01*
X8379752Y6047134D01*
X8361098Y6054861D01*
X8341295Y6058800D01*
X8331200D01*
X8321105D01*
X8301302Y6054861D01*
X8282648Y6047134D01*
X8265860Y6035917D01*
X8251583Y6021640D01*
X8240366Y6004852D01*
X8232639Y5986198D01*
X8228700Y5966395D01*
Y5956300D01*
D01*
D02*
G37*
G36*
X15778865Y1707935D02*
Y1857935D01*
X16008865D01*
Y1707935D01*
Y1692795D01*
X16001028Y1663547D01*
X15985889Y1637323D01*
X15964478Y1615912D01*
X15938252Y1600772D01*
X15909006Y1592935D01*
X15878725D01*
X15849477Y1600772D01*
X15823253Y1615912D01*
X15801842Y1637323D01*
X15786702Y1663547D01*
X15778865Y1692795D01*
Y1707935D01*
D01*
D02*
G37*
G36*
Y3357935D02*
Y3507935D01*
Y3523075D01*
X15786702Y3552323D01*
X15801842Y3578547D01*
X15823253Y3599958D01*
X15849477Y3615098D01*
X15878725Y3622935D01*
X15909006D01*
X15938252Y3615098D01*
X15964478Y3599958D01*
X15985889Y3578547D01*
X16001028Y3552323D01*
X16008865Y3523075D01*
Y3507935D01*
D01*
Y3357935D01*
X15778865D01*
D02*
G37*
G36*
X628865Y1707935D02*
Y1692795D01*
X636702Y1663547D01*
X651842Y1637323D01*
X673253Y1615912D01*
X699476Y1600772D01*
X728725Y1592935D01*
X759005D01*
X788253Y1600772D01*
X814476Y1615912D01*
X835888Y1637323D01*
X851028Y1663547D01*
X858865Y1692795D01*
Y1707935D01*
D01*
Y1857935D01*
X628865D01*
Y1707935D01*
D02*
G37*
G36*
Y3357935D02*
Y3507935D01*
Y3523075D01*
X636702Y3552323D01*
X651842Y3578547D01*
X673253Y3599958D01*
X699476Y3615098D01*
X728725Y3622935D01*
X759005D01*
X788253Y3615098D01*
X814476Y3599958D01*
X835888Y3578547D01*
X851028Y3552323D01*
X858865Y3523075D01*
Y3507935D01*
D01*
Y3357935D01*
X628865D01*
D02*
G37*
D55*
X318865Y1707935D02*
X318865Y3507935D01*
D02*
G02*
X1168865Y3507935I425000J0D01*
G01*
Y3357935D01*
X2818865D01*
Y5357935D01*
X3318865Y5857935D01*
X5318865D01*
Y6857935D01*
X5818865Y7357935D01*
X10818865D01*
X11318865Y6857935D01*
Y5857935D01*
X13318864D01*
X13818864Y5357935D01*
Y3357935D01*
X15468864D01*
Y3507935D01*
D02*
G02*
X16318864Y3507935I425000J0D01*
G01*
X16318864Y1707935D01*
D02*
G02*
X15468864Y1707935I-425000J0D01*
G01*
Y1857935D01*
X8568865D01*
Y1257935D01*
X8068865D01*
Y1857935D01*
X1168865D01*
Y1707935D01*
D02*
G02*
X318865Y1707935I-425000J0D01*
G01*
%TF.MD5,764e59df77887656800ac7db581d7950*%
M02*
