%TF.GenerationSoftware,Altium Limited,Altium Designer,24.7.2 (38)*%
G04 Layer_Physical_Order=3*
G04 Layer_Color=128*
%FSLAX45Y45*%
%MOMM*%
%TF.SameCoordinates,4658354D-353F-4C49-8F46-90FD7368F250*%
%TF.FilePolarity,Negative*%
%TF.FileFunction,Copper,L3,Inr,Plane*%
%TF.Part,Single*%
G01*
G75*
%TA.AperFunction,NonConductor*%
%ADD25C,1.01600*%
%TA.AperFunction,ComponentPad*%
%ADD26C,2.06600*%
%ADD28C,1.77800*%
G04:AMPARAMS|DCode=29|XSize=2.286mm|YSize=2.286mm|CornerRadius=0mm|HoleSize=0mm|Usage=FLASHONLY|Rotation=0.000|XOffset=0mm|YOffset=0mm|HoleType=Round|Shape=Relief|Width=0.254mm|Gap=0.254mm|Entries=4|*
%AMTHD29*
7,0,0,2.28600,1.77800,0.25400,45*
%
%ADD29THD29*%
%TA.AperFunction,ViaPad*%
%ADD31C,1.72720*%
G04:AMPARAMS|DCode=32|XSize=2.2352mm|YSize=2.2352mm|CornerRadius=0mm|HoleSize=0mm|Usage=FLASHONLY|Rotation=0.000|XOffset=0mm|YOffset=0mm|HoleType=Round|Shape=Relief|Width=0.254mm|Gap=0.254mm|Entries=4|*
%AMTHD32*
7,0,0,2.23520,1.72720,0.25400,45*
%
%ADD32THD32*%
G36*
X8361098Y6054861D02*
X8379752Y6047134D01*
X8396540Y6035917D01*
X8410817Y6021640D01*
X8422034Y6004852D01*
X8429761Y5986198D01*
X8433700Y5966395D01*
Y5956300D01*
Y5946205D01*
X8429761Y5926402D01*
X8422034Y5907748D01*
X8410817Y5890960D01*
X8396540Y5876683D01*
X8379752Y5865466D01*
X8361098Y5857739D01*
X8341295Y5853800D01*
X8321105D01*
X8301302Y5857739D01*
X8282648Y5865466D01*
X8265860Y5876683D01*
X8251583Y5890960D01*
X8240366Y5907748D01*
X8232639Y5926402D01*
X8228700Y5946205D01*
Y5956300D01*
Y5966395D01*
X8232639Y5986198D01*
X8240366Y6004852D01*
X8251583Y6021640D01*
X8265860Y6035917D01*
X8282648Y6047134D01*
X8301302Y6054861D01*
X8321105Y6058800D01*
X8341295D01*
X8361098Y6054861D01*
D02*
G37*
G36*
X15938252Y3615098D02*
X15964478Y3599958D01*
X15985889Y3578547D01*
X16001028Y3552323D01*
X16008865Y3523075D01*
Y3507935D01*
Y3357935D01*
X15778865D01*
Y3507935D01*
Y3523075D01*
X15786702Y3552323D01*
X15801842Y3578547D01*
X15823253Y3599958D01*
X15849477Y3615098D01*
X15878725Y3622935D01*
X15909006D01*
X15938252Y3615098D01*
D02*
G37*
G36*
X788253D02*
X814476Y3599958D01*
X835888Y3578547D01*
X851028Y3552323D01*
X858865Y3523075D01*
Y3507935D01*
Y3357935D01*
X628865D01*
Y3507935D01*
Y3523075D01*
X636702Y3552323D01*
X651842Y3578547D01*
X673253Y3599958D01*
X699476Y3615098D01*
X728725Y3622935D01*
X759005D01*
X788253Y3615098D01*
D02*
G37*
G36*
X16008865Y1707935D02*
Y1692795D01*
X16001028Y1663547D01*
X15985889Y1637323D01*
X15964478Y1615912D01*
X15938252Y1600772D01*
X15909006Y1592935D01*
X15878725D01*
X15849477Y1600772D01*
X15823253Y1615912D01*
X15801842Y1637323D01*
X15786702Y1663547D01*
X15778865Y1692795D01*
Y1707935D01*
Y1857935D01*
X16008865D01*
Y1707935D01*
D02*
G37*
G36*
X858865D02*
Y1692795D01*
X851028Y1663547D01*
X835888Y1637323D01*
X814476Y1615912D01*
X788253Y1600772D01*
X759005Y1592935D01*
X728725D01*
X699476Y1600772D01*
X673253Y1615912D01*
X651842Y1637323D01*
X636702Y1663547D01*
X628865Y1692795D01*
Y1707935D01*
Y1857935D01*
X858865D01*
Y1707935D01*
D02*
G37*
G36*
X8348763Y1556496D02*
X8367417Y1548769D01*
X8384205Y1537552D01*
X8398482Y1523275D01*
X8409699Y1506487D01*
X8417426Y1487833D01*
X8421365Y1468030D01*
Y1457935D01*
Y1447840D01*
X8417426Y1428037D01*
X8409699Y1409383D01*
X8398482Y1392595D01*
X8384205Y1378318D01*
X8367417Y1367101D01*
X8348763Y1359374D01*
X8328960Y1355435D01*
X8308770D01*
X8288967Y1359374D01*
X8270313Y1367101D01*
X8253525Y1378318D01*
X8239248Y1392595D01*
X8228031Y1409383D01*
X8220304Y1428037D01*
X8216365Y1447840D01*
Y1457935D01*
Y1468030D01*
X8220304Y1487833D01*
X8228031Y1506487D01*
X8239248Y1523275D01*
X8253525Y1537552D01*
X8270313Y1548769D01*
X8288967Y1556496D01*
X8308770Y1560435D01*
X8328960D01*
X8348763Y1556496D01*
D02*
G37*
D25*
X8328960Y1560435D02*
X8348763Y1556496D01*
X8367417Y1548769D01*
X8384205Y1537552D01*
X8398482Y1523275D01*
X8409699Y1506487D01*
X8417426Y1487833D01*
X8421365Y1468030D01*
Y1457935D02*
Y1468030D01*
Y1447840D02*
Y1457935D01*
X8417426Y1428037D02*
X8421365Y1447840D01*
X8409699Y1409383D02*
X8417426Y1428037D01*
X8398482Y1392595D02*
X8409699Y1409383D01*
X8384205Y1378318D02*
X8398482Y1392595D01*
X8367417Y1367101D02*
X8384205Y1378318D01*
X8348763Y1359374D02*
X8367417Y1367101D01*
X8328960Y1355435D02*
X8348763Y1359374D01*
X8308770Y1355435D02*
X8328960D01*
X8288967Y1359374D02*
X8308770Y1355435D01*
X8270313Y1367101D02*
X8288967Y1359374D01*
X8253525Y1378318D02*
X8270313Y1367101D01*
X8239248Y1392595D02*
X8253525Y1378318D01*
X8228031Y1409383D02*
X8239248Y1392595D01*
X8220304Y1428037D02*
X8228031Y1409383D01*
X8216365Y1447840D02*
X8220304Y1428037D01*
X8216365Y1447840D02*
Y1457935D01*
Y1468030D01*
X8220304Y1487833D01*
X8228031Y1506487D01*
X8239248Y1523275D01*
X8253525Y1537552D01*
X8270313Y1548769D01*
X8288967Y1556496D01*
X8308770Y1560435D01*
X8328960D01*
X8341295Y6058800D02*
X8361098Y6054861D01*
X8379752Y6047134D01*
X8396540Y6035917D01*
X8410817Y6021640D01*
X8422034Y6004852D01*
X8429761Y5986198D01*
X8433700Y5966395D01*
Y5956300D02*
Y5966395D01*
Y5946205D02*
Y5956300D01*
X8429761Y5926402D02*
X8433700Y5946205D01*
X8422034Y5907748D02*
X8429761Y5926402D01*
X8410817Y5890960D02*
X8422034Y5907748D01*
X8396540Y5876683D02*
X8410817Y5890960D01*
X8379752Y5865466D02*
X8396540Y5876683D01*
X8361098Y5857739D02*
X8379752Y5865466D01*
X8341295Y5853800D02*
X8361098Y5857739D01*
X8321105Y5853800D02*
X8341295D01*
X8301302Y5857739D02*
X8321105Y5853800D01*
X8282648Y5865466D02*
X8301302Y5857739D01*
X8265860Y5876683D02*
X8282648Y5865466D01*
X8251583Y5890960D02*
X8265860Y5876683D01*
X8240366Y5907748D02*
X8251583Y5890960D01*
X8232639Y5926402D02*
X8240366Y5907748D01*
X8228700Y5946205D02*
X8232639Y5926402D01*
X8228700Y5946205D02*
Y5956300D01*
Y5966395D01*
X8232639Y5986198D01*
X8240366Y6004852D01*
X8251583Y6021640D01*
X8265860Y6035917D01*
X8282648Y6047134D01*
X8301302Y6054861D01*
X8321105Y6058800D01*
X8341295D01*
X16008865Y1707935D02*
Y1857935D01*
Y1692795D02*
Y1707935D01*
X16001028Y1663547D02*
X16008865Y1692795D01*
X15985889Y1637323D02*
X16001028Y1663547D01*
X15964478Y1615912D02*
X15985889Y1637323D01*
X15938252Y1600772D02*
X15964478Y1615912D01*
X15909006Y1592935D02*
X15938252Y1600772D01*
X15878725Y1592935D02*
X15909006D01*
X15849477Y1600772D02*
X15878725Y1592935D01*
X15823253Y1615912D02*
X15849477Y1600772D01*
X15801842Y1637323D02*
X15823253Y1615912D01*
X15786702Y1663547D02*
X15801842Y1637323D01*
X15778865Y1692795D02*
X15786702Y1663547D01*
X15778865Y1692795D02*
Y1707935D01*
Y1857935D01*
X16008865D01*
X15909006Y3622935D02*
X15938252Y3615098D01*
X15964478Y3599958D01*
X15985889Y3578547D01*
X16001028Y3552323D01*
X16008865Y3523075D01*
Y3507935D02*
Y3523075D01*
Y3357935D02*
Y3507935D01*
X15778865Y3357935D02*
X16008865D01*
X15778865D02*
Y3507935D01*
Y3523075D01*
X15786702Y3552323D01*
X15801842Y3578547D01*
X15823253Y3599958D01*
X15849477Y3615098D01*
X15878725Y3622935D01*
X15909006D01*
X858865Y1707935D02*
Y1857935D01*
Y1692795D02*
Y1707935D01*
X851028Y1663547D02*
X858865Y1692795D01*
X835888Y1637323D02*
X851028Y1663547D01*
X814476Y1615912D02*
X835888Y1637323D01*
X788253Y1600772D02*
X814476Y1615912D01*
X759005Y1592935D02*
X788253Y1600772D01*
X728725Y1592935D02*
X759005D01*
X699476Y1600772D02*
X728725Y1592935D01*
X673253Y1615912D02*
X699476Y1600772D01*
X651842Y1637323D02*
X673253Y1615912D01*
X636702Y1663547D02*
X651842Y1637323D01*
X628865Y1692795D02*
X636702Y1663547D01*
X628865Y1692795D02*
Y1707935D01*
Y1857935D01*
X858865D01*
X759005Y3622935D02*
X788253Y3615098D01*
X814476Y3599958D01*
X835888Y3578547D01*
X851028Y3552323D01*
X858865Y3523075D01*
Y3507935D02*
Y3523075D01*
Y3357935D02*
Y3507935D01*
X628865Y3357935D02*
X858865D01*
X628865D02*
Y3507935D01*
Y3523075D01*
X636702Y3552323D01*
X651842Y3578547D01*
X673253Y3599958D01*
X699476Y3615098D01*
X728725Y3622935D01*
X759005D01*
X1168865Y3535791D02*
X1168865Y3507935D01*
X1161593Y3591026D02*
X1168865Y3535791D01*
X1147173Y3644840D02*
X1161593Y3591026D01*
X1125853Y3696311D02*
X1147173Y3644840D01*
X1097998Y3744559D02*
X1125853Y3696311D01*
X1064082Y3788758D02*
X1097998Y3744559D01*
X1024688Y3828152D02*
X1064082Y3788758D01*
X980489Y3862068D02*
X1024688Y3828152D01*
X932241Y3889924D02*
X980489Y3862068D01*
X880770Y3911244D02*
X932241Y3889924D01*
X826956Y3925663D02*
X880770Y3911244D01*
X771721Y3932935D02*
X826956Y3925663D01*
X716009Y3932935D02*
X771721D01*
X660773Y3925663D02*
X716009Y3932935D01*
X606960Y3911244D02*
X660773Y3925663D01*
X555489Y3889924D02*
X606960Y3911244D01*
X507241Y3862068D02*
X555489Y3889924D01*
X463041Y3828152D02*
X507241Y3862068D01*
X423647Y3788758D02*
X463041Y3828152D01*
X389732Y3744559D02*
X423647Y3788758D01*
X361876Y3696311D02*
X389732Y3744559D01*
X340556Y3644840D02*
X361876Y3696311D01*
X326137Y3591026D02*
X340556Y3644840D01*
X318865Y3535791D02*
X326137Y3591026D01*
X318865Y3507935D02*
Y3535791D01*
X318865Y1680079D02*
Y1707935D01*
Y1680079D02*
X326137Y1624844D01*
X340556Y1571030D01*
X361876Y1519559D01*
X389732Y1471311D01*
X423648Y1427112D01*
X463042Y1387718D01*
X507241Y1353802D01*
X555489Y1325946D01*
X606960Y1304626D01*
X660774Y1290207D01*
X716009Y1282935D01*
X771721D01*
X826956Y1290207D01*
X880770Y1304626D01*
X932241Y1325946D01*
X980489Y1353802D01*
X1024688Y1387718D01*
X1064082Y1427112D01*
X1097998Y1471311D01*
X1125854Y1519559D01*
X1147174Y1571030D01*
X1161593Y1624844D01*
X1168865Y1680079D01*
Y1707935D01*
X15468864Y1680079D02*
Y1707935D01*
Y1680079D02*
X15476137Y1624844D01*
X15490556Y1571030D01*
X15511876Y1519559D01*
X15539732Y1471311D01*
X15573647Y1427112D01*
X15613042Y1387718D01*
X15657240Y1353802D01*
X15705489Y1325946D01*
X15756960Y1304626D01*
X15810773Y1290207D01*
X15866010Y1282935D01*
X15921721D01*
X15976956Y1290207D01*
X16030769Y1304626D01*
X16082240Y1325946D01*
X16130489Y1353802D01*
X16174689Y1387718D01*
X16214082Y1427112D01*
X16247997Y1471311D01*
X16275853Y1519559D01*
X16297173Y1571030D01*
X16311594Y1624844D01*
X16318864Y1680079D01*
Y1707935D01*
Y3507935D01*
Y3535791D01*
X16311594Y3591026D02*
X16318864Y3535791D01*
X16297173Y3644840D02*
X16311594Y3591026D01*
X16275853Y3696311D02*
X16297173Y3644840D01*
X16247997Y3744559D02*
X16275853Y3696311D01*
X16214082Y3788758D02*
X16247997Y3744559D01*
X16174689Y3828152D02*
X16214082Y3788758D01*
X16130489Y3862068D02*
X16174689Y3828152D01*
X16082240Y3889924D02*
X16130489Y3862068D01*
X16030769Y3911244D02*
X16082240Y3889924D01*
X15976956Y3925663D02*
X16030769Y3911244D01*
X15921721Y3932935D02*
X15976956Y3925663D01*
X15866010Y3932935D02*
X15921721D01*
X15810773Y3925663D02*
X15866010Y3932935D01*
X15756960Y3911244D02*
X15810773Y3925663D01*
X15705489Y3889924D02*
X15756960Y3911244D01*
X15657240Y3862068D02*
X15705489Y3889924D01*
X15613042Y3828152D02*
X15657240Y3862068D01*
X15573647Y3788758D02*
X15613042Y3828152D01*
X15539732Y3744559D02*
X15573647Y3788758D01*
X15511876Y3696311D02*
X15539732Y3744559D01*
X15490556Y3644840D02*
X15511876Y3696311D01*
X15476137Y3591026D02*
X15490556Y3644840D01*
X15468864Y3535791D02*
X15476137Y3591026D01*
X15468864Y3507935D02*
Y3535791D01*
X1168865Y1707935D02*
Y1857935D01*
X8068865D01*
Y1257935D02*
Y1857935D01*
Y1257935D02*
X8568865D01*
Y1857935D01*
X15468864D01*
Y1707935D02*
Y1857935D01*
Y3357935D02*
Y3507935D01*
X13818864Y3357935D02*
X15468864D01*
X13818864D02*
Y5357935D01*
X13318864Y5857935D02*
X13818864Y5357935D01*
X11318865Y5857935D02*
X13318864D01*
X11318865D02*
Y6857935D01*
X10818865Y7357935D02*
X11318865Y6857935D01*
X5818865Y7357935D02*
X10818865D01*
X5318865Y6857935D02*
X5818865Y7357935D01*
X5318865Y5857935D02*
Y6857935D01*
X3318865Y5857935D02*
X5318865D01*
X2818865Y5357935D02*
X3318865Y5857935D01*
X2818865Y3357935D02*
Y5357935D01*
X1168865Y3357935D02*
X2818865D01*
X1168865D02*
Y3507935D01*
X318865D02*
X318865Y1707935D01*
D26*
X3327400Y4974400D02*
D03*
Y4724400D02*
D03*
D28*
X6972300Y2921000D02*
D03*
Y3175000D02*
D03*
Y3429000D02*
D03*
Y3683000D02*
D03*
Y3937000D02*
D03*
Y4191000D02*
D03*
Y4445000D02*
D03*
Y4699000D02*
D03*
X5702300D02*
D03*
Y4445000D02*
D03*
Y4191000D02*
D03*
Y3937000D02*
D03*
Y3683000D02*
D03*
Y3429000D02*
D03*
Y2921000D02*
D03*
X10452100Y4991100D02*
D03*
X10198100D02*
D03*
X9944100D02*
D03*
X9690100D02*
D03*
X9436100D02*
D03*
X9182100D02*
D03*
X8928100D02*
D03*
X8674100D02*
D03*
X8420100D02*
D03*
X8166100D02*
D03*
X7912100D02*
D03*
X7658100D02*
D03*
X7404100D02*
D03*
X7150100D02*
D03*
X6896100D02*
D03*
X6642100D02*
D03*
X6388100D02*
D03*
X6134100D02*
D03*
X5880100D02*
D03*
X5626100D02*
D03*
X10960100Y2451100D02*
D03*
X10706100D02*
D03*
X10452100D02*
D03*
X10198100D02*
D03*
X9944100D02*
D03*
X9690100D02*
D03*
X9436100D02*
D03*
X9182100D02*
D03*
X8928100D02*
D03*
X8674100D02*
D03*
X8420100D02*
D03*
X8166100D02*
D03*
X7912100D02*
D03*
X7658100D02*
D03*
X7404100D02*
D03*
X6896100D02*
D03*
X6642100D02*
D03*
X6388100D02*
D03*
X6134100D02*
D03*
X5880100D02*
D03*
X5626100D02*
D03*
X7150100D02*
D03*
D29*
X5702300Y3175000D02*
D03*
X10706100Y4991100D02*
D03*
X10960100D02*
D03*
D31*
X5461000Y4445000D02*
D03*
X4025900Y2032000D02*
D03*
X4267200Y3886200D02*
D03*
D32*
X4025900Y2794000D02*
D03*
X4864100Y4851400D02*
D03*
X12636500Y2540000D02*
D03*
%TF.MD5,987327290b2fad75a7ecd9aaa93b747e*%
M02*
