%TF.GenerationSoftware,Altium Limited,Altium Designer,24.7.2 (38)*%
G04 Layer_Color=16711935*
%FSLAX45Y45*%
%MOMM*%
%TF.SameCoordinates,4658354D-353F-4C49-8F46-90FD7368F250*%
%TF.FilePolarity,Negative*%
%TF.FileFunction,Soldermask,Bot*%
%TF.Part,Single*%
G01*
G75*
%TA.AperFunction,SMDPad,CuDef*%
%ADD33R,0.95000X1.40000*%
%TA.AperFunction,ComponentPad*%
%ADD47R,1.77820X1.77820*%
%ADD48C,1.77820*%
%ADD49C,1.72720*%
%ADD50R,1.72720X1.72720*%
%TA.AperFunction,ViaPad*%
%ADD51C,1.47320*%
%TA.AperFunction,SMDPad,CuDef*%
%ADD52R,1.00320X1.20320*%
%ADD53R,1.96320X3.34320*%
%ADD54R,1.96320X1.08320*%
D33*
X4004100Y4318000D02*
D03*
X3819100D02*
D03*
X4200100D02*
D03*
X4385100D02*
D03*
D47*
X3327400Y4974400D02*
D03*
D48*
Y4724400D02*
D03*
D49*
X6972300Y2921000D02*
D03*
Y3175000D02*
D03*
Y3429000D02*
D03*
Y3683000D02*
D03*
Y3937000D02*
D03*
Y4191000D02*
D03*
Y4445000D02*
D03*
Y4699000D02*
D03*
X5702300D02*
D03*
Y4445000D02*
D03*
Y4191000D02*
D03*
Y3937000D02*
D03*
Y3683000D02*
D03*
Y3429000D02*
D03*
Y3175000D02*
D03*
X10706100Y4991100D02*
D03*
X10452100D02*
D03*
X10198100D02*
D03*
X9944100D02*
D03*
X9690100D02*
D03*
X9436100D02*
D03*
X9182100D02*
D03*
X8928100D02*
D03*
X8674100D02*
D03*
X8420100D02*
D03*
X8166100D02*
D03*
X7912100D02*
D03*
X7658100D02*
D03*
X7404100D02*
D03*
X7150100D02*
D03*
X6896100D02*
D03*
X6642100D02*
D03*
X6388100D02*
D03*
X6134100D02*
D03*
X5880100D02*
D03*
X5626100D02*
D03*
X10960100Y2451100D02*
D03*
X10706100D02*
D03*
X10452100D02*
D03*
X10198100D02*
D03*
X9944100D02*
D03*
X9690100D02*
D03*
X9436100D02*
D03*
X9182100D02*
D03*
X8928100D02*
D03*
X8674100D02*
D03*
X8420100D02*
D03*
X8166100D02*
D03*
X7912100D02*
D03*
X7658100D02*
D03*
X7404100D02*
D03*
X6896100D02*
D03*
X6642100D02*
D03*
X6388100D02*
D03*
X6134100D02*
D03*
X5880100D02*
D03*
X5626100D02*
D03*
X7150100D02*
D03*
X10960100Y4991100D02*
D03*
D50*
X5702300Y2921000D02*
D03*
D51*
X5461000Y4445000D02*
D03*
X4025900Y2032000D02*
D03*
X4267200Y3886200D02*
D03*
X4025900Y2794000D02*
D03*
X4864100Y4851400D02*
D03*
X12636500Y2540000D02*
D03*
D52*
X6426200Y2692400D02*
D03*
X6276200D02*
D03*
D53*
X4605100Y4851400D02*
D03*
D54*
X3980100Y5081400D02*
D03*
Y4851400D02*
D03*
Y4621400D02*
D03*
%TF.MD5,3a1be6e17aa543b79e4c86199463d3bc*%
M02*
