%TF.GenerationSoftware,Altium Limited,Altium Designer,24.7.2 (38)*%
G04 Layer_Color=8388736*
%FSLAX45Y45*%
%MOMM*%
%TF.SameCoordinates,4658354D-353F-4C49-8F46-90FD7368F250*%
%TF.FilePolarity,Negative*%
%TF.FileFunction,Soldermask,Top*%
%TF.Part,Single*%
G01*
G75*
%TA.AperFunction,SMDPad,CuDef*%
%ADD12R,3.20000X1.60000*%
%ADD14R,1.25000X1.10000*%
%ADD43R,2.00320X2.40320*%
%ADD44R,0.50320X1.50320*%
%ADD45R,7.20320X1.72720*%
%ADD46R,1.40320X1.65320*%
%TA.AperFunction,ComponentPad*%
%ADD47R,1.77820X1.77820*%
%ADD48C,1.77820*%
%ADD49C,1.72720*%
%ADD50R,1.72720X1.72720*%
%TA.AperFunction,ViaPad*%
%ADD51C,1.47320*%
D12*
X4453700Y5334000D02*
D03*
X3953700D02*
D03*
Y4470400D02*
D03*
X4453700D02*
D03*
D14*
X3994200Y3810000D02*
D03*
X3759200D02*
D03*
D43*
X7666200Y6832600D02*
D03*
X8996200D02*
D03*
D44*
X7856200Y6507600D02*
D03*
X7906200D02*
D03*
X7956200D02*
D03*
X8006200D02*
D03*
X8056200D02*
D03*
X8106200D02*
D03*
X8156200D02*
D03*
X8206200D02*
D03*
X8256200D02*
D03*
X8306200D02*
D03*
X8356200D02*
D03*
X8406200D02*
D03*
X8456200D02*
D03*
X8506200D02*
D03*
X8556200D02*
D03*
X8606200D02*
D03*
X8656200D02*
D03*
X8706200D02*
D03*
X8756200D02*
D03*
X8806200D02*
D03*
D45*
X13144501Y2286000D02*
D03*
X3505200Y2032000D02*
D03*
Y2286000D02*
D03*
Y2540000D02*
D03*
Y2794000D02*
D03*
Y3048000D02*
D03*
Y3302000D02*
D03*
X13144501D02*
D03*
Y3048000D02*
D03*
Y2794000D02*
D03*
Y2540000D02*
D03*
Y2032000D02*
D03*
D46*
X3341700Y3810000D02*
D03*
X3541700D02*
D03*
D47*
X3327400Y4974400D02*
D03*
D48*
Y4724400D02*
D03*
D49*
X6972300Y2921000D02*
D03*
Y3175000D02*
D03*
Y3429000D02*
D03*
Y3683000D02*
D03*
Y3937000D02*
D03*
Y4191000D02*
D03*
Y4445000D02*
D03*
Y4699000D02*
D03*
X5702300D02*
D03*
Y4445000D02*
D03*
Y4191000D02*
D03*
Y3937000D02*
D03*
Y3683000D02*
D03*
Y3429000D02*
D03*
Y3175000D02*
D03*
X10706100Y4991100D02*
D03*
X10452100D02*
D03*
X10198100D02*
D03*
X9944100D02*
D03*
X9690100D02*
D03*
X9436100D02*
D03*
X9182100D02*
D03*
X8928100D02*
D03*
X8674100D02*
D03*
X8420100D02*
D03*
X8166100D02*
D03*
X7912100D02*
D03*
X7658100D02*
D03*
X7404100D02*
D03*
X7150100D02*
D03*
X6896100D02*
D03*
X6642100D02*
D03*
X6388100D02*
D03*
X6134100D02*
D03*
X5880100D02*
D03*
X5626100D02*
D03*
X10960100Y2451100D02*
D03*
X10706100D02*
D03*
X10452100D02*
D03*
X10198100D02*
D03*
X9944100D02*
D03*
X9690100D02*
D03*
X9436100D02*
D03*
X9182100D02*
D03*
X8928100D02*
D03*
X8674100D02*
D03*
X8420100D02*
D03*
X8166100D02*
D03*
X7912100D02*
D03*
X7658100D02*
D03*
X7404100D02*
D03*
X6896100D02*
D03*
X6642100D02*
D03*
X6388100D02*
D03*
X6134100D02*
D03*
X5880100D02*
D03*
X5626100D02*
D03*
X7150100D02*
D03*
X10960100Y4991100D02*
D03*
D50*
X5702300Y2921000D02*
D03*
D51*
X5461000Y4445000D02*
D03*
X4025900Y2032000D02*
D03*
X4267200Y3886200D02*
D03*
X4025900Y2794000D02*
D03*
X4864100Y4851400D02*
D03*
X12636500Y2540000D02*
D03*
%TF.MD5,a0c33800646ca43282cf13febdc5233d*%
M02*
